<?xml version="1.0" encoding="UTF-8"?>
<svg xmlns="http://www.w3.org/2000/svg" version="1.1" width="400" height="400">
  <g id="D38999_26KJ29SN-drawing-contents-start">
<!-- Finish colors approximated from https://d38999.federalconnectors.com/ -->
<!-- Plug details from typical D38999/26 / Glenair 233-105 hardware -->
<rect x="-24.00" y="-84.09" width="57.98" height="168.19" fill="#A3A4A0" stroke="none"/>
<rect x="33.98" y="-90.73" width="60.47" height="181.46" fill="#7A7B77" stroke="none"/>
<rect x="33.98" y="-90.73" width="8.31" height="181.46" fill="#5E5F5B" stroke="none"/>
<rect x="82.36" y="-90.73" width="2.27" height="181.46" fill="#5E5F5B" stroke="none"/>
<rect x="89.91" y="-90.73" width="4.54" height="181.46" fill="#1A1A1A" stroke="none"/>
<line x1="42.29" y1="84.23" x2="48.79" y2="90.73" stroke="#5C5D59" stroke-width="0.85"/>
<line x1="42.29" y1="77.73" x2="55.29" y2="90.73" stroke="#5C5D59" stroke-width="0.85"/>
<line x1="42.29" y1="71.23" x2="61.79" y2="90.73" stroke="#5C5D59" stroke-width="0.85"/>
<line x1="42.29" y1="64.73" x2="68.29" y2="90.73" stroke="#5C5D59" stroke-width="0.85"/>
<line x1="42.29" y1="58.23" x2="74.79" y2="90.73" stroke="#5C5D59" stroke-width="0.85"/>
<line x1="42.29" y1="51.73" x2="81.29" y2="90.73" stroke="#5C5D59" stroke-width="0.85"/>
<line x1="42.29" y1="45.23" x2="82.36" y2="85.29" stroke="#5C5D59" stroke-width="0.85"/>
<line x1="42.29" y1="38.73" x2="82.36" y2="78.79" stroke="#5C5D59" stroke-width="0.85"/>
<line x1="42.29" y1="32.23" x2="82.36" y2="72.29" stroke="#5C5D59" stroke-width="0.85"/>
<line x1="42.29" y1="25.73" x2="82.36" y2="65.79" stroke="#5C5D59" stroke-width="0.85"/>
<line x1="42.29" y1="19.23" x2="82.36" y2="59.29" stroke="#5C5D59" stroke-width="0.85"/>
<line x1="42.29" y1="12.73" x2="82.36" y2="52.79" stroke="#5C5D59" stroke-width="0.85"/>
<line x1="42.29" y1="6.23" x2="82.36" y2="46.29" stroke="#5C5D59" stroke-width="0.85"/>
<line x1="42.29" y1="-0.27" x2="82.36" y2="39.79" stroke="#5C5D59" stroke-width="0.85"/>
<line x1="42.29" y1="-6.77" x2="82.36" y2="33.29" stroke="#5C5D59" stroke-width="0.85"/>
<line x1="42.29" y1="-13.27" x2="82.36" y2="26.79" stroke="#5C5D59" stroke-width="0.85"/>
<line x1="42.29" y1="-19.77" x2="82.36" y2="20.29" stroke="#5C5D59" stroke-width="0.85"/>
<line x1="42.29" y1="-26.27" x2="82.36" y2="13.79" stroke="#5C5D59" stroke-width="0.85"/>
<line x1="42.29" y1="-32.77" x2="82.36" y2="7.29" stroke="#5C5D59" stroke-width="0.85"/>
<line x1="42.29" y1="-39.27" x2="82.36" y2="0.79" stroke="#5C5D59" stroke-width="0.85"/>
<line x1="42.29" y1="-45.77" x2="82.36" y2="-5.71" stroke="#5C5D59" stroke-width="0.85"/>
<line x1="42.29" y1="-52.27" x2="82.36" y2="-12.21" stroke="#5C5D59" stroke-width="0.85"/>
<line x1="42.29" y1="-58.77" x2="82.36" y2="-18.71" stroke="#5C5D59" stroke-width="0.85"/>
<line x1="42.29" y1="-65.27" x2="82.36" y2="-25.21" stroke="#5C5D59" stroke-width="0.85"/>
<line x1="42.29" y1="-71.77" x2="82.36" y2="-31.71" stroke="#5C5D59" stroke-width="0.85"/>
<line x1="42.29" y1="-78.27" x2="82.36" y2="-38.21" stroke="#5C5D59" stroke-width="0.85"/>
<line x1="42.29" y1="-84.77" x2="82.36" y2="-44.71" stroke="#5C5D59" stroke-width="0.85"/>
<line x1="42.84" y1="-90.73" x2="82.36" y2="-51.21" stroke="#5C5D59" stroke-width="0.85"/>
<line x1="49.34" y1="-90.73" x2="82.36" y2="-57.71" stroke="#5C5D59" stroke-width="0.85"/>
<line x1="55.84" y1="-90.73" x2="82.36" y2="-64.21" stroke="#5C5D59" stroke-width="0.85"/>
<line x1="62.34" y1="-90.73" x2="82.36" y2="-70.71" stroke="#5C5D59" stroke-width="0.85"/>
<line x1="68.84" y1="-90.73" x2="82.36" y2="-77.21" stroke="#5C5D59" stroke-width="0.85"/>
<line x1="75.34" y1="-90.73" x2="82.36" y2="-83.71" stroke="#5C5D59" stroke-width="0.85"/>
<line x1="81.84" y1="-90.73" x2="82.36" y2="-90.21" stroke="#5C5D59" stroke-width="0.85"/>
<line x1="42.29" y1="-84.23" x2="48.79" y2="-90.73" stroke="#5C5D59" stroke-width="0.85"/>
<line x1="42.29" y1="-77.73" x2="55.29" y2="-90.73" stroke="#5C5D59" stroke-width="0.85"/>
<line x1="42.29" y1="-71.23" x2="61.79" y2="-90.73" stroke="#5C5D59" stroke-width="0.85"/>
<line x1="42.29" y1="-64.73" x2="68.29" y2="-90.73" stroke="#5C5D59" stroke-width="0.85"/>
<line x1="42.29" y1="-58.23" x2="74.79" y2="-90.73" stroke="#5C5D59" stroke-width="0.85"/>
<line x1="42.29" y1="-51.73" x2="81.29" y2="-90.73" stroke="#5C5D59" stroke-width="0.85"/>
<line x1="42.29" y1="-45.23" x2="82.36" y2="-85.29" stroke="#5C5D59" stroke-width="0.85"/>
<line x1="42.29" y1="-38.73" x2="82.36" y2="-78.79" stroke="#5C5D59" stroke-width="0.85"/>
<line x1="42.29" y1="-32.23" x2="82.36" y2="-72.29" stroke="#5C5D59" stroke-width="0.85"/>
<line x1="42.29" y1="-25.73" x2="82.36" y2="-65.79" stroke="#5C5D59" stroke-width="0.85"/>
<line x1="42.29" y1="-19.23" x2="82.36" y2="-59.29" stroke="#5C5D59" stroke-width="0.85"/>
<line x1="42.29" y1="-12.73" x2="82.36" y2="-52.79" stroke="#5C5D59" stroke-width="0.85"/>
<line x1="42.29" y1="-6.23" x2="82.36" y2="-46.29" stroke="#5C5D59" stroke-width="0.85"/>
<line x1="42.29" y1="0.27" x2="82.36" y2="-39.79" stroke="#5C5D59" stroke-width="0.85"/>
<line x1="42.29" y1="6.77" x2="82.36" y2="-33.29" stroke="#5C5D59" stroke-width="0.85"/>
<line x1="42.29" y1="13.27" x2="82.36" y2="-26.79" stroke="#5C5D59" stroke-width="0.85"/>
<line x1="42.29" y1="19.77" x2="82.36" y2="-20.29" stroke="#5C5D59" stroke-width="0.85"/>
<line x1="42.29" y1="26.27" x2="82.36" y2="-13.79" stroke="#5C5D59" stroke-width="0.85"/>
<line x1="42.29" y1="32.77" x2="82.36" y2="-7.29" stroke="#5C5D59" stroke-width="0.85"/>
<line x1="42.29" y1="39.27" x2="82.36" y2="-0.79" stroke="#5C5D59" stroke-width="0.85"/>
<line x1="42.29" y1="45.77" x2="82.36" y2="5.71" stroke="#5C5D59" stroke-width="0.85"/>
<line x1="42.29" y1="52.27" x2="82.36" y2="12.21" stroke="#5C5D59" stroke-width="0.85"/>
<line x1="42.29" y1="58.77" x2="82.36" y2="18.71" stroke="#5C5D59" stroke-width="0.85"/>
<line x1="42.29" y1="65.27" x2="82.36" y2="25.21" stroke="#5C5D59" stroke-width="0.85"/>
<line x1="42.29" y1="71.77" x2="82.36" y2="31.71" stroke="#5C5D59" stroke-width="0.85"/>
<line x1="42.29" y1="78.27" x2="82.36" y2="38.21" stroke="#5C5D59" stroke-width="0.85"/>
<line x1="42.29" y1="84.77" x2="82.36" y2="44.71" stroke="#5C5D59" stroke-width="0.85"/>
<line x1="42.84" y1="90.73" x2="82.36" y2="51.21" stroke="#5C5D59" stroke-width="0.85"/>
<line x1="49.34" y1="90.73" x2="82.36" y2="57.71" stroke="#5C5D59" stroke-width="0.85"/>
<line x1="55.84" y1="90.73" x2="82.36" y2="64.21" stroke="#5C5D59" stroke-width="0.85"/>
<line x1="62.34" y1="90.73" x2="82.36" y2="70.71" stroke="#5C5D59" stroke-width="0.85"/>
<line x1="68.84" y1="90.73" x2="82.36" y2="77.21" stroke="#5C5D59" stroke-width="0.85"/>
<line x1="75.34" y1="90.73" x2="82.36" y2="83.71" stroke="#5C5D59" stroke-width="0.85"/>
<line x1="81.84" y1="90.73" x2="82.36" y2="90.21" stroke="#5C5D59" stroke-width="0.85"/>
<line x1="34.81" y1="-90.73" x2="34.81" y2="-81.65" stroke="#5C5D59" stroke-width="0.8"/>
<line x1="34.81" y1="90.73" x2="34.81" y2="81.65" stroke="#5C5D59" stroke-width="0.8"/>
<line x1="36.47" y1="-90.73" x2="36.47" y2="-81.65" stroke="#5C5D59" stroke-width="0.8"/>
<line x1="36.47" y1="90.73" x2="36.47" y2="81.65" stroke="#5C5D59" stroke-width="0.8"/>
<line x1="38.14" y1="-90.73" x2="38.14" y2="-81.65" stroke="#5C5D59" stroke-width="0.8"/>
<line x1="38.14" y1="90.73" x2="38.14" y2="81.65" stroke="#5C5D59" stroke-width="0.8"/>
<line x1="39.80" y1="-90.73" x2="39.80" y2="-81.65" stroke="#5C5D59" stroke-width="0.8"/>
<line x1="39.80" y1="90.73" x2="39.80" y2="81.65" stroke="#5C5D59" stroke-width="0.8"/>
<line x1="41.46" y1="-90.73" x2="41.46" y2="-81.65" stroke="#5C5D59" stroke-width="0.8"/>
<line x1="41.46" y1="90.73" x2="41.46" y2="81.65" stroke="#5C5D59" stroke-width="0.8"/>
<polygon points="-24.00,-84.09 33.98,-84.09 33.98,-90.73 94.45,-90.73 94.45,90.73 33.98,90.73 33.98,84.09 -24.00,84.09" fill="none" stroke="#222222" stroke-width="1.5"/>
</g>
<g id="D38999_26KJ29SN-drawing-contents-end">
  </g>
  <g id="output csys locations">
    <g id="flagnote-1">
      <circle cx="288.00" cy="-0.00" r="4" fill="black"/>
      <line x1="288.00" y1="-0.00" x2="312.00" y2="-0.00" stroke="red" stroke-width="2"/>
      <polygon points="312.00,-0.00 306.00,-3.00 306.00,3.00" fill="red"/>
      <line x1="288.00" y1="-0.00" x2="288.00" y2="-24.00" stroke="green" stroke-width="2"/>
      <polygon points="288.00,-24.00 285.00,-18.00 291.00,-18.00" fill="green"/>
    </g>
    <g id="flagnote-1-leader_dest">
      <circle cx="94.45" cy="-0.00" r="4" fill="black"/>
      <line x1="94.45" y1="-0.00" x2="118.45" y2="-0.00" stroke="red" stroke-width="2"/>
      <polygon points="118.45,-0.00 112.45,-3.00 112.45,3.00" fill="red"/>
      <line x1="94.45" y1="-0.00" x2="94.45" y2="-24.00" stroke="green" stroke-width="2"/>
      <polygon points="94.45,-24.00 91.45,-18.00 97.45,-18.00" fill="green"/>
    </g>
    <g id="flagnote-2">
      <circle cx="278.19" cy="-74.54" r="4" fill="black"/>
      <line x1="278.19" y1="-74.54" x2="302.19" y2="-74.54" stroke="red" stroke-width="2"/>
      <polygon points="302.19,-74.54 296.19,-77.54 296.19,-71.54" fill="red"/>
      <line x1="278.19" y1="-74.54" x2="278.19" y2="-98.54" stroke="green" stroke-width="2"/>
      <polygon points="278.19,-98.54 275.19,-92.54 281.19,-92.54" fill="green"/>
    </g>
    <g id="flagnote-2-leader_dest">
      <circle cx="94.45" cy="-25.31" r="4" fill="black"/>
      <line x1="94.45" y1="-25.31" x2="118.45" y2="-25.31" stroke="red" stroke-width="2"/>
      <polygon points="118.45,-25.31 112.45,-28.31 112.45,-22.31" fill="red"/>
      <line x1="94.45" y1="-25.31" x2="94.45" y2="-49.31" stroke="green" stroke-width="2"/>
      <polygon points="94.45,-49.31 91.45,-43.31 97.45,-43.31" fill="green"/>
    </g>
    <g id="flagnote-3">
      <circle cx="278.19" cy="74.54" r="4" fill="black"/>
      <line x1="278.19" y1="74.54" x2="302.19" y2="74.54" stroke="red" stroke-width="2"/>
      <polygon points="302.19,74.54 296.19,71.54 296.19,77.54" fill="red"/>
      <line x1="278.19" y1="74.54" x2="278.19" y2="50.54" stroke="green" stroke-width="2"/>
      <polygon points="278.19,50.54 275.19,56.54 281.19,56.54" fill="green"/>
    </g>
    <g id="flagnote-3-leader_dest">
      <circle cx="94.45" cy="25.31" r="4" fill="black"/>
      <line x1="94.45" y1="25.31" x2="118.45" y2="25.31" stroke="red" stroke-width="2"/>
      <polygon points="118.45,25.31 112.45,22.31 112.45,28.31" fill="red"/>
      <line x1="94.45" y1="25.31" x2="94.45" y2="1.31" stroke="green" stroke-width="2"/>
      <polygon points="94.45,1.31 91.45,7.31 97.45,7.31" fill="green"/>
    </g>
    <g id="flagnote-4">
      <circle cx="249.42" cy="-144.00" r="4" fill="black"/>
      <line x1="249.42" y1="-144.00" x2="273.42" y2="-144.00" stroke="red" stroke-width="2"/>
      <polygon points="273.42,-144.00 267.42,-147.00 267.42,-141.00" fill="red"/>
      <line x1="249.42" y1="-144.00" x2="249.42" y2="-168.00" stroke="green" stroke-width="2"/>
      <polygon points="249.42,-168.00 246.42,-162.00 252.42,-162.00" fill="green"/>
    </g>
    <g id="flagnote-4-leader_dest">
      <circle cx="94.45" cy="-54.53" r="4" fill="black"/>
      <line x1="94.45" y1="-54.53" x2="118.45" y2="-54.53" stroke="red" stroke-width="2"/>
      <polygon points="118.45,-54.53 112.45,-57.53 112.45,-51.53" fill="red"/>
      <line x1="94.45" y1="-54.53" x2="94.45" y2="-78.53" stroke="green" stroke-width="2"/>
      <polygon points="94.45,-78.53 91.45,-72.53 97.45,-72.53" fill="green"/>
    </g>
    <g id="flagnote-5">
      <circle cx="249.42" cy="144.00" r="4" fill="black"/>
      <line x1="249.42" y1="144.00" x2="273.42" y2="144.00" stroke="red" stroke-width="2"/>
      <polygon points="273.42,144.00 267.42,141.00 267.42,147.00" fill="red"/>
      <line x1="249.42" y1="144.00" x2="249.42" y2="120.00" stroke="green" stroke-width="2"/>
      <polygon points="249.42,120.00 246.42,126.00 252.42,126.00" fill="green"/>
    </g>
    <g id="flagnote-5-leader_dest">
      <circle cx="94.45" cy="54.53" r="4" fill="black"/>
      <line x1="94.45" y1="54.53" x2="118.45" y2="54.53" stroke="red" stroke-width="2"/>
      <polygon points="118.45,54.53 112.45,51.53 112.45,57.53" fill="red"/>
      <line x1="94.45" y1="54.53" x2="94.45" y2="30.53" stroke="green" stroke-width="2"/>
      <polygon points="94.45,30.53 91.45,36.53 97.45,36.53" fill="green"/>
    </g>
    <g id="flagnote-6">
      <circle cx="203.65" cy="-203.65" r="4" fill="black"/>
      <line x1="203.65" y1="-203.65" x2="227.65" y2="-203.65" stroke="red" stroke-width="2"/>
      <polygon points="227.65,-203.65 221.65,-206.65 221.65,-200.65" fill="red"/>
      <line x1="203.65" y1="-203.65" x2="203.65" y2="-227.65" stroke="green" stroke-width="2"/>
      <polygon points="203.65,-227.65 200.65,-221.65 206.65,-221.65" fill="green"/>
    </g>
    <g id="flagnote-6-leader_dest">
      <circle cx="90.72" cy="-90.72" r="4" fill="black"/>
      <line x1="90.72" y1="-90.72" x2="114.72" y2="-90.72" stroke="red" stroke-width="2"/>
      <polygon points="114.72,-90.72 108.72,-93.72 108.72,-87.72" fill="red"/>
      <line x1="90.72" y1="-90.72" x2="90.72" y2="-114.72" stroke="green" stroke-width="2"/>
      <polygon points="90.72,-114.72 87.72,-108.72 93.72,-108.72" fill="green"/>
    </g>
    <g id="flagnote-7">
      <circle cx="203.65" cy="203.65" r="4" fill="black"/>
      <line x1="203.65" y1="203.65" x2="227.65" y2="203.65" stroke="red" stroke-width="2"/>
      <polygon points="227.65,203.65 221.65,200.65 221.65,206.65" fill="red"/>
      <line x1="203.65" y1="203.65" x2="203.65" y2="179.65" stroke="green" stroke-width="2"/>
      <polygon points="203.65,179.65 200.65,185.65 206.65,185.65" fill="green"/>
    </g>
    <g id="flagnote-7-leader_dest">
      <circle cx="90.72" cy="90.72" r="4" fill="black"/>
      <line x1="90.72" y1="90.72" x2="114.72" y2="90.72" stroke="red" stroke-width="2"/>
      <polygon points="114.72,90.72 108.72,87.72 108.72,93.72" fill="red"/>
      <line x1="90.72" y1="90.72" x2="90.72" y2="66.72" stroke="green" stroke-width="2"/>
      <polygon points="90.72,66.72 87.72,72.72 93.72,72.72" fill="green"/>
    </g>
    <g id="flagnote-8">
      <circle cx="144.00" cy="-249.42" r="4" fill="black"/>
      <line x1="144.00" y1="-249.42" x2="168.00" y2="-249.42" stroke="red" stroke-width="2"/>
      <polygon points="168.00,-249.42 162.00,-252.42 162.00,-246.42" fill="red"/>
      <line x1="144.00" y1="-249.42" x2="144.00" y2="-273.42" stroke="green" stroke-width="2"/>
      <polygon points="144.00,-273.42 141.00,-267.42 147.00,-267.42" fill="green"/>
    </g>
    <g id="flagnote-8-leader_dest">
      <circle cx="52.38" cy="-90.73" r="4" fill="black"/>
      <line x1="52.38" y1="-90.73" x2="76.38" y2="-90.73" stroke="red" stroke-width="2"/>
      <polygon points="76.38,-90.73 70.38,-93.73 70.38,-87.73" fill="red"/>
      <line x1="52.38" y1="-90.73" x2="52.38" y2="-114.73" stroke="green" stroke-width="2"/>
      <polygon points="52.38,-114.73 49.38,-108.73 55.38,-108.73" fill="green"/>
    </g>
    <g id="flagnote-9">
      <circle cx="144.00" cy="249.42" r="4" fill="black"/>
      <line x1="144.00" y1="249.42" x2="168.00" y2="249.42" stroke="red" stroke-width="2"/>
      <polygon points="168.00,249.42 162.00,246.42 162.00,252.42" fill="red"/>
      <line x1="144.00" y1="249.42" x2="144.00" y2="225.42" stroke="green" stroke-width="2"/>
      <polygon points="144.00,225.42 141.00,231.42 147.00,231.42" fill="green"/>
    </g>
    <g id="flagnote-9-leader_dest">
      <circle cx="52.38" cy="90.73" r="4" fill="black"/>
      <line x1="52.38" y1="90.73" x2="76.38" y2="90.73" stroke="red" stroke-width="2"/>
      <polygon points="76.38,90.73 70.38,87.73 70.38,93.73" fill="red"/>
      <line x1="52.38" y1="90.73" x2="52.38" y2="66.73" stroke="green" stroke-width="2"/>
      <polygon points="52.38,66.73 49.38,72.73 55.38,72.73" fill="green"/>
    </g>
    <g id="flagnote-10">
      <circle cx="74.54" cy="278.19" r="4" fill="black"/>
      <line x1="74.54" y1="278.19" x2="98.54" y2="278.19" stroke="red" stroke-width="2"/>
      <polygon points="98.54,278.19 92.54,275.19 92.54,281.19" fill="red"/>
      <line x1="74.54" y1="278.19" x2="74.54" y2="254.19" stroke="green" stroke-width="2"/>
      <polygon points="74.54,254.19 71.54,260.19 77.54,260.19" fill="green"/>
    </g>
    <g id="flagnote-10-leader_dest">
      <circle cx="22.53" cy="84.10" r="4" fill="black"/>
      <line x1="22.53" y1="84.10" x2="46.53" y2="84.10" stroke="red" stroke-width="2"/>
      <polygon points="46.53,84.10 40.53,81.10 40.53,87.10" fill="red"/>
      <line x1="22.53" y1="84.10" x2="22.53" y2="60.10" stroke="green" stroke-width="2"/>
      <polygon points="22.53,60.10 19.53,66.10 25.53,66.10" fill="green"/>
    </g>
    <g id="flagnote-11">
      <circle cx="74.54" cy="-278.19" r="4" fill="black"/>
      <line x1="74.54" y1="-278.19" x2="98.54" y2="-278.19" stroke="red" stroke-width="2"/>
      <polygon points="98.54,-278.19 92.54,-281.19 92.54,-275.19" fill="red"/>
      <line x1="74.54" y1="-278.19" x2="74.54" y2="-302.19" stroke="green" stroke-width="2"/>
      <polygon points="74.54,-302.19 71.54,-296.19 77.54,-296.19" fill="green"/>
    </g>
    <g id="flagnote-11-leader_dest">
      <circle cx="22.53" cy="-84.10" r="4" fill="black"/>
      <line x1="22.53" y1="-84.10" x2="46.53" y2="-84.10" stroke="red" stroke-width="2"/>
      <polygon points="46.53,-84.10 40.53,-87.10 40.53,-81.10" fill="red"/>
      <line x1="22.53" y1="-84.10" x2="22.53" y2="-108.10" stroke="green" stroke-width="2"/>
      <polygon points="22.53,-108.10 19.53,-102.10 25.53,-102.10" fill="green"/>
    </g>
    <g id="flagnote-12">
      <circle cx="0.00" cy="288.00" r="4" fill="black"/>
      <line x1="0.00" y1="288.00" x2="24.00" y2="288.00" stroke="red" stroke-width="2"/>
      <polygon points="24.00,288.00 18.00,285.00 18.00,291.00" fill="red"/>
      <line x1="0.00" y1="288.00" x2="0.00" y2="264.00" stroke="green" stroke-width="2"/>
      <polygon points="0.00,264.00 -3.00,270.00 3.00,270.00" fill="green"/>
    </g>
    <g id="flagnote-12-leader_dest">
      <circle cx="0.00" cy="84.10" r="4" fill="black"/>
      <line x1="0.00" y1="84.10" x2="24.00" y2="84.10" stroke="red" stroke-width="2"/>
      <polygon points="24.00,84.10 18.00,81.10 18.00,87.10" fill="red"/>
      <line x1="0.00" y1="84.10" x2="0.00" y2="60.10" stroke="green" stroke-width="2"/>
      <polygon points="0.00,60.10 -3.00,66.10 3.00,66.10" fill="green"/>
    </g>
    <g id="flagnote-13">
      <circle cx="0.00" cy="-288.00" r="4" fill="black"/>
      <line x1="0.00" y1="-288.00" x2="24.00" y2="-288.00" stroke="red" stroke-width="2"/>
      <polygon points="24.00,-288.00 18.00,-291.00 18.00,-285.00" fill="red"/>
      <line x1="0.00" y1="-288.00" x2="0.00" y2="-312.00" stroke="green" stroke-width="2"/>
      <polygon points="0.00,-312.00 -3.00,-306.00 3.00,-306.00" fill="green"/>
    </g>
    <g id="flagnote-13-leader_dest">
      <circle cx="0.00" cy="-84.10" r="4" fill="black"/>
      <line x1="0.00" y1="-84.10" x2="24.00" y2="-84.10" stroke="red" stroke-width="2"/>
      <polygon points="24.00,-84.10 18.00,-87.10 18.00,-81.10" fill="red"/>
      <line x1="0.00" y1="-84.10" x2="0.00" y2="-108.10" stroke="green" stroke-width="2"/>
      <polygon points="0.00,-108.10 -3.00,-102.10 3.00,-102.10" fill="green"/>
    </g>
  </g>
</svg>
