<?xml version="1.0" encoding="UTF-8"?>
<svg xmlns="http://www.w3.org/2000/svg" version="1.1" width="400" height="400">
  <g id="M85049-90_N17YP02-drawing-contents-start">
<!-- Finish colors approximated from https://d38999.federalconnectors.com/ -->
<!-- Knurl and section details from typical M85049/88 /89 /90 hardware -->
<defs>
<pattern id="m85049-90_n17yp02-knurl-diamond" width="8" height="8" patternUnits="userSpaceOnUse">
  <path d="M0,8 L8,0 M-2,2 L2,-2 M6,10 L10,6" stroke="#5A6168" stroke-width="0.85" fill="none"/>
  <path d="M0,0 L8,8 M-2,6 L2,10 M6,-2 L10,2" stroke="#5A6168" stroke-width="0.85" fill="none"/>
</pattern>
<pattern id="m85049-90_n17yp02-knurl-diamond-nut" width="8" height="8" patternUnits="userSpaceOnUse">
  <path d="M0,8 L8,0 M-2,2 L2,-2 M6,10 L10,6" stroke="#5E6367" stroke-width="0.85" fill="none"/>
  <path d="M0,0 L8,8 M-2,6 L2,10 M6,-2 L10,2" stroke="#5E6367" stroke-width="0.85" fill="none"/>
</pattern>
</defs>
<rect x="-33.60" y="-31.68" width="228.77" height="63.36" fill="#C0C4C8" stroke="none"/>
<rect x="59.81" y="-168.00" width="135.36" height="199.68" fill="#C0C4C8" stroke="none"/>
<rect x="59.81" y="-168.00" width="135.36" height="50.40" fill="#7A7F83" stroke="none"/>
<rect x="59.81" y="-152.88" width="135.36" height="35.28" fill="#5E6367" stroke="none" opacity="0.55"/>
<rect x="-33.60" y="-31.68" width="33.60" height="63.36" fill="#C5CAD0" stroke="none"/>
<rect x="-29.57" y="-31.68" width="29.57" height="63.36" fill="#5A6168" stroke="none" opacity="0.55"/>
<line x1="59.81" y1="-31.68" x2="195.17" y2="31.68" stroke="#000000" stroke-width="1" opacity="0.05"/>
<polygon points="-33.60,-31.68 59.81,-31.68 59.81,-168.00 195.17,-168.00 195.17,31.68 -33.60,31.68" fill="none" stroke="#222222" stroke-width="1.5"/>
</g>
<g id="M85049-90_N17YP02-drawing-contents-end">
  </g>
  <g id="output csys locations">
    <g id="connector">
      <circle cx="127.49" cy="-168.00" r="4" fill="black"/>
      <line x1="127.49" y1="-168.00" x2="127.49" y2="-192.00" stroke="red" stroke-width="2"/>
      <polygon points="127.49,-192.00 124.49,-186.00 130.49,-186.00" fill="red"/>
      <line x1="127.49" y1="-168.00" x2="103.49" y2="-168.00" stroke="green" stroke-width="2"/>
      <polygon points="103.49,-168.00 109.49,-165.00 109.49,-171.00" fill="green"/>
    </g>
    <g id="leader_center">
      <circle cx="106.94" cy="-55.92" r="4" fill="black"/>
      <line x1="106.94" y1="-55.92" x2="130.94" y2="-55.92" stroke="red" stroke-width="2"/>
      <polygon points="130.94,-55.92 124.94,-58.92 124.94,-52.92" fill="red"/>
      <line x1="106.94" y1="-55.92" x2="106.94" y2="-79.92" stroke="green" stroke-width="2"/>
      <polygon points="106.94,-79.92 103.94,-73.92 109.94,-73.92" fill="green"/>
    </g>
    <g id="flagnote-1-leader_dest">
      <circle cx="194.53" cy="31.68" r="4" fill="black"/>
      <line x1="194.53" y1="31.68" x2="218.53" y2="31.68" stroke="red" stroke-width="2"/>
      <polygon points="218.53,31.68 212.53,28.68 212.53,34.68" fill="red"/>
      <line x1="194.53" y1="31.68" x2="194.53" y2="7.68" stroke="green" stroke-width="2"/>
      <polygon points="194.53,7.68 191.53,13.68 197.53,13.68" fill="green"/>
    </g>
    <g id="flagnote-1">
      <circle cx="330.93" cy="168.08" r="4" fill="black"/>
      <line x1="330.93" y1="168.08" x2="354.93" y2="168.08" stroke="red" stroke-width="2"/>
      <polygon points="354.93,168.08 348.93,165.08 348.93,171.08" fill="red"/>
      <line x1="330.93" y1="168.08" x2="330.93" y2="144.08" stroke="green" stroke-width="2"/>
      <polygon points="330.93,144.08 327.93,150.08 333.93,150.08" fill="green"/>
    </g>
    <g id="flagnote-2-leader_dest">
      <circle cx="157.52" cy="31.68" r="4" fill="black"/>
      <line x1="157.52" y1="31.68" x2="181.52" y2="31.68" stroke="red" stroke-width="2"/>
      <polygon points="181.52,31.68 175.52,28.68 175.52,34.68" fill="red"/>
      <line x1="157.52" y1="31.68" x2="157.52" y2="7.68" stroke="green" stroke-width="2"/>
      <polygon points="157.52,7.68 154.52,13.68 160.52,13.68" fill="green"/>
    </g>
    <g id="flagnote-2">
      <circle cx="265.32" cy="218.42" r="4" fill="black"/>
      <line x1="265.32" y1="218.42" x2="289.32" y2="218.42" stroke="red" stroke-width="2"/>
      <polygon points="289.32,218.42 283.32,215.42 283.32,221.42" fill="red"/>
      <line x1="265.32" y1="218.42" x2="265.32" y2="194.42" stroke="green" stroke-width="2"/>
      <polygon points="265.32,194.42 262.32,200.42 268.32,200.42" fill="green"/>
    </g>
    <g id="flagnote-3-leader_dest">
      <circle cx="195.17" cy="-4.98" r="4" fill="black"/>
      <line x1="195.17" y1="-4.98" x2="219.17" y2="-4.98" stroke="red" stroke-width="2"/>
      <polygon points="219.17,-4.98 213.17,-7.98 213.17,-1.98" fill="red"/>
      <line x1="195.17" y1="-4.98" x2="195.17" y2="-28.98" stroke="green" stroke-width="2"/>
      <polygon points="195.17,-28.98 192.17,-22.98 198.17,-22.98" fill="green"/>
    </g>
    <g id="flagnote-3">
      <circle cx="381.27" cy="102.47" r="4" fill="black"/>
      <line x1="381.27" y1="102.47" x2="405.27" y2="102.47" stroke="red" stroke-width="2"/>
      <polygon points="405.27,102.47 399.27,99.47 399.27,105.47" fill="red"/>
      <line x1="381.27" y1="102.47" x2="381.27" y2="78.47" stroke="green" stroke-width="2"/>
      <polygon points="381.27,78.47 378.27,84.47 384.27,84.47" fill="green"/>
    </g>
    <g id="flagnote-4-leader_dest">
      <circle cx="130.42" cy="31.68" r="4" fill="black"/>
      <line x1="130.42" y1="31.68" x2="154.42" y2="31.68" stroke="red" stroke-width="2"/>
      <polygon points="154.42,31.68 148.42,28.68 148.42,34.68" fill="red"/>
      <line x1="130.42" y1="31.68" x2="130.42" y2="7.68" stroke="green" stroke-width="2"/>
      <polygon points="130.42,7.68 127.42,13.68 133.42,13.68" fill="green"/>
    </g>
    <g id="flagnote-4">
      <circle cx="188.93" cy="250.06" r="4" fill="black"/>
      <line x1="188.93" y1="250.06" x2="212.93" y2="250.06" stroke="red" stroke-width="2"/>
      <polygon points="212.93,250.06 206.93,247.06 206.93,253.06" fill="red"/>
      <line x1="188.93" y1="250.06" x2="188.93" y2="226.06" stroke="green" stroke-width="2"/>
      <polygon points="188.93,226.06 185.93,232.06 191.93,232.06" fill="green"/>
    </g>
    <g id="flagnote-5-leader_dest">
      <circle cx="195.17" cy="-32.28" r="4" fill="black"/>
      <line x1="195.17" y1="-32.28" x2="219.17" y2="-32.28" stroke="red" stroke-width="2"/>
      <polygon points="219.17,-32.28 213.17,-35.28 213.17,-29.28" fill="red"/>
      <line x1="195.17" y1="-32.28" x2="195.17" y2="-56.28" stroke="green" stroke-width="2"/>
      <polygon points="195.17,-56.28 192.17,-50.28 198.17,-50.28" fill="green"/>
    </g>
    <g id="flagnote-5">
      <circle cx="412.92" cy="26.07" r="4" fill="black"/>
      <line x1="412.92" y1="26.07" x2="436.92" y2="26.07" stroke="red" stroke-width="2"/>
      <polygon points="436.92,26.07 430.92,23.07 430.92,29.07" fill="red"/>
      <line x1="412.92" y1="26.07" x2="412.92" y2="2.07" stroke="green" stroke-width="2"/>
      <polygon points="412.92,2.07 409.92,8.07 415.92,8.07" fill="green"/>
    </g>
    <g id="flagnote-6-leader_dest">
      <circle cx="106.94" cy="31.68" r="4" fill="black"/>
      <line x1="106.94" y1="31.68" x2="130.94" y2="31.68" stroke="red" stroke-width="2"/>
      <polygon points="130.94,31.68 124.94,28.68 124.94,34.68" fill="red"/>
      <line x1="106.94" y1="31.68" x2="106.94" y2="7.68" stroke="green" stroke-width="2"/>
      <polygon points="106.94,7.68 103.94,13.68 109.94,13.68" fill="green"/>
    </g>
    <g id="flagnote-6">
      <circle cx="106.94" cy="260.85" r="4" fill="black"/>
      <line x1="106.94" y1="260.85" x2="130.94" y2="260.85" stroke="red" stroke-width="2"/>
      <polygon points="130.94,260.85 124.94,257.85 124.94,263.85" fill="red"/>
      <line x1="106.94" y1="260.85" x2="106.94" y2="236.85" stroke="green" stroke-width="2"/>
      <polygon points="106.94,236.85 103.94,242.85 109.94,242.85" fill="green"/>
    </g>
    <g id="flagnote-7-leader_dest">
      <circle cx="195.17" cy="-55.92" r="4" fill="black"/>
      <line x1="195.17" y1="-55.92" x2="219.17" y2="-55.92" stroke="red" stroke-width="2"/>
      <polygon points="219.17,-55.92 213.17,-58.92 213.17,-52.92" fill="red"/>
      <line x1="195.17" y1="-55.92" x2="195.17" y2="-79.92" stroke="green" stroke-width="2"/>
      <polygon points="195.17,-79.92 192.17,-73.92 198.17,-73.92" fill="green"/>
    </g>
    <g id="flagnote-7">
      <circle cx="423.72" cy="-55.92" r="4" fill="black"/>
      <line x1="423.72" y1="-55.92" x2="447.72" y2="-55.92" stroke="red" stroke-width="2"/>
      <polygon points="447.72,-55.92 441.72,-58.92 441.72,-52.92" fill="red"/>
      <line x1="423.72" y1="-55.92" x2="423.72" y2="-79.92" stroke="green" stroke-width="2"/>
      <polygon points="423.72,-79.92 420.72,-73.92 426.72,-73.92" fill="green"/>
    </g>
    <g id="flagnote-8-leader_dest">
      <circle cx="83.47" cy="31.68" r="4" fill="black"/>
      <line x1="83.47" y1="31.68" x2="107.47" y2="31.68" stroke="red" stroke-width="2"/>
      <polygon points="107.47,31.68 101.47,28.68 101.47,34.68" fill="red"/>
      <line x1="83.47" y1="31.68" x2="83.47" y2="7.68" stroke="green" stroke-width="2"/>
      <polygon points="83.47,7.68 80.47,13.68 86.47,13.68" fill="green"/>
    </g>
    <g id="flagnote-8">
      <circle cx="24.95" cy="250.06" r="4" fill="black"/>
      <line x1="24.95" y1="250.06" x2="48.95" y2="250.06" stroke="red" stroke-width="2"/>
      <polygon points="48.95,250.06 42.95,247.06 42.95,253.06" fill="red"/>
      <line x1="24.95" y1="250.06" x2="24.95" y2="226.06" stroke="green" stroke-width="2"/>
      <polygon points="24.95,226.06 21.95,232.06 27.95,232.06" fill="green"/>
    </g>
    <g id="flagnote-9-leader_dest">
      <circle cx="195.17" cy="-79.56" r="4" fill="black"/>
      <line x1="195.17" y1="-79.56" x2="219.17" y2="-79.56" stroke="red" stroke-width="2"/>
      <polygon points="219.17,-79.56 213.17,-82.56 213.17,-76.56" fill="red"/>
      <line x1="195.17" y1="-79.56" x2="195.17" y2="-103.56" stroke="green" stroke-width="2"/>
      <polygon points="195.17,-103.56 192.17,-97.56 198.17,-97.56" fill="green"/>
    </g>
    <g id="flagnote-9">
      <circle cx="412.92" cy="-137.90" r="4" fill="black"/>
      <line x1="412.92" y1="-137.90" x2="436.92" y2="-137.90" stroke="red" stroke-width="2"/>
      <polygon points="436.92,-137.90 430.92,-140.90 430.92,-134.90" fill="red"/>
      <line x1="412.92" y1="-137.90" x2="412.92" y2="-161.90" stroke="green" stroke-width="2"/>
      <polygon points="412.92,-161.90 409.92,-155.90 415.92,-155.90" fill="green"/>
    </g>
    <g id="flagnote-10-leader_dest">
      <circle cx="56.37" cy="31.68" r="4" fill="black"/>
      <line x1="56.37" y1="31.68" x2="80.37" y2="31.68" stroke="red" stroke-width="2"/>
      <polygon points="80.37,31.68 74.37,28.68 74.37,34.68" fill="red"/>
      <line x1="56.37" y1="31.68" x2="56.37" y2="7.68" stroke="green" stroke-width="2"/>
      <polygon points="56.37,7.68 53.37,13.68 59.37,13.68" fill="green"/>
    </g>
    <g id="flagnote-10">
      <circle cx="-51.45" cy="218.42" r="4" fill="black"/>
      <line x1="-51.45" y1="218.42" x2="-27.45" y2="218.42" stroke="red" stroke-width="2"/>
      <polygon points="-27.45,218.42 -33.45,215.42 -33.45,221.42" fill="red"/>
      <line x1="-51.45" y1="218.42" x2="-51.45" y2="194.42" stroke="green" stroke-width="2"/>
      <polygon points="-51.45,194.42 -54.45,200.42 -48.45,200.42" fill="green"/>
    </g>
    <g id="flagnote-11-leader_dest">
      <circle cx="195.17" cy="-106.86" r="4" fill="black"/>
      <line x1="195.17" y1="-106.86" x2="219.17" y2="-106.86" stroke="red" stroke-width="2"/>
      <polygon points="219.17,-106.86 213.17,-109.86 213.17,-103.86" fill="red"/>
      <line x1="195.17" y1="-106.86" x2="195.17" y2="-130.86" stroke="green" stroke-width="2"/>
      <polygon points="195.17,-130.86 192.17,-124.86 198.17,-124.86" fill="green"/>
    </g>
    <g id="flagnote-11">
      <circle cx="381.27" cy="-214.30" r="4" fill="black"/>
      <line x1="381.27" y1="-214.30" x2="405.27" y2="-214.30" stroke="red" stroke-width="2"/>
      <polygon points="405.27,-214.30 399.27,-217.30 399.27,-211.30" fill="red"/>
      <line x1="381.27" y1="-214.30" x2="381.27" y2="-238.30" stroke="green" stroke-width="2"/>
      <polygon points="381.27,-238.30 378.27,-232.30 384.27,-232.30" fill="green"/>
    </g>
    <g id="flagnote-12-leader_dest">
      <circle cx="19.34" cy="31.68" r="4" fill="black"/>
      <line x1="19.34" y1="31.68" x2="43.34" y2="31.68" stroke="red" stroke-width="2"/>
      <polygon points="43.34,31.68 37.34,28.68 37.34,34.68" fill="red"/>
      <line x1="19.34" y1="31.68" x2="19.34" y2="7.68" stroke="green" stroke-width="2"/>
      <polygon points="19.34,7.68 16.34,13.68 22.34,13.68" fill="green"/>
    </g>
    <g id="flagnote-12">
      <circle cx="-117.05" cy="168.08" r="4" fill="black"/>
      <line x1="-117.05" y1="168.08" x2="-93.05" y2="168.08" stroke="red" stroke-width="2"/>
      <polygon points="-93.05,168.08 -99.05,165.08 -99.05,171.08" fill="red"/>
      <line x1="-117.05" y1="168.08" x2="-117.05" y2="144.08" stroke="green" stroke-width="2"/>
      <polygon points="-117.05,144.08 -120.05,150.08 -114.05,150.08" fill="green"/>
    </g>
    <g id="flagnote-13-leader_dest">
      <circle cx="195.17" cy="-144.14" r="4" fill="black"/>
      <line x1="195.17" y1="-144.14" x2="219.17" y2="-144.14" stroke="red" stroke-width="2"/>
      <polygon points="219.17,-144.14 213.17,-147.14 213.17,-141.14" fill="red"/>
      <line x1="195.17" y1="-144.14" x2="195.17" y2="-168.14" stroke="green" stroke-width="2"/>
      <polygon points="195.17,-168.14 192.17,-162.14 198.17,-162.14" fill="green"/>
    </g>
    <g id="flagnote-13">
      <circle cx="330.93" cy="-279.91" r="4" fill="black"/>
      <line x1="330.93" y1="-279.91" x2="354.93" y2="-279.91" stroke="red" stroke-width="2"/>
      <polygon points="354.93,-279.91 348.93,-282.91 348.93,-276.91" fill="red"/>
      <line x1="330.93" y1="-279.91" x2="330.93" y2="-303.91" stroke="green" stroke-width="2"/>
      <polygon points="330.93,-303.91 327.93,-297.91 333.93,-297.91" fill="green"/>
    </g>
  </g>
</svg>
