<?xml version="1.0" encoding="UTF-8"?>
<svg xmlns="http://www.w3.org/2000/svg" version="1.1" width="400" height="400">
  <g id="M85049-88_15P02-drawing-contents-start">
<!-- Finish colors approximated from https://d38999.federalconnectors.com/ -->
<!-- Knurl and section details from typical M85049/88 /89 /90 hardware -->
<defs>
<pattern id="M85049-88_15P02-knurl-diamond" width="8" height="8" patternUnits="userSpaceOnUse">
  <path d="M0,8 L8,0 M-2,2 L2,-2 M6,10 L10,6" stroke="#5A6168" stroke-width="0.85" fill="none"/>
  <path d="M0,0 L8,8 M-2,6 L2,10 M6,-2 L10,2" stroke="#5A6168" stroke-width="0.85" fill="none"/>
</pattern>
<pattern id="M85049-88_15P02-knurl-diamond-nut" width="8" height="8" patternUnits="userSpaceOnUse">
  <path d="M0,8 L8,0 M-2,2 L2,-2 M6,10 L10,6" stroke="#2E2F16" stroke-width="0.85" fill="none"/>
  <path d="M0,0 L8,8 M-2,6 L2,10 M6,-2 L10,2" stroke="#2E2F16" stroke-width="0.85" fill="none"/>
</pattern>
<pattern id="M85049-88_15P02-knurl-straight" width="3.4" height="8" patternUnits="userSpaceOnUse">
  <line x1="1.1" y1="0" x2="1.1" y2="8" stroke="#2E2F16" stroke-width="1.15"/>
</pattern>
<pattern id="M85049-88_15P02-knurl-straight-v" width="8" height="3.4" patternUnits="userSpaceOnUse">
  <line x1="0" y1="1.1" x2="8" y2="1.1" stroke="#2E2F16" stroke-width="1.15"/>
</pattern>
</defs>
<polygon points="0.00,-28.70 33.60,-28.70 49.15,-45.07 126.91,-45.07 126.91,-61.44 163.20,-61.44 163.20,61.44 126.91,61.44 126.91,45.07 49.15,45.07 33.60,28.70 0.00,28.70" fill="#6B6C38" stroke="#222222" stroke-width="1.5"/>
<rect x="126.91" y="-61.44" width="36.29" height="122.88" fill="#3E3F22" stroke="none"/>
<rect x="126.91" y="-61.44" width="25.40" height="122.88" fill="url(#M85049-88_15P02-knurl-straight)" stroke="none" opacity="0.55"/>
<rect x="0.00" y="-28.70" width="33.60" height="57.41" fill="#C5CAD0" stroke="none"/>
<rect x="4.03" y="-28.70" width="25.57" height="57.41" fill="url(#M85049-88_15P02-knurl-diamond)" stroke="none" opacity="0.55"/>
<rect x="0.00" y="-15.79" width="4.00" height="31.57" fill="#2C2D18" stroke="none"/>
<rect x="157.60" y="-27.87" width="1.60" height="55.74" fill="#C62828" stroke="none"/>
<rect x="159.20" y="-25.80" width="4.00" height="51.61" fill="#2C2D18" stroke="none"/>
<polygon points="0.00,-28.70 33.60,-28.70 49.15,-45.07 126.91,-45.07 126.91,-61.44 163.20,-61.44 163.20,61.44 126.91,61.44 126.91,45.07 49.15,45.07 33.60,28.70 0.00,28.70" fill="none" stroke="#222222" stroke-width="1.5"/>
</g>
<g id="M85049-88_15P02-drawing-contents-end">
  </g>
  <g id="output csys locations">
    <g id="connector">
      <circle cx="163.20" cy="-0.00" r="4" fill="black"/>
      <line x1="163.20" y1="-0.00" x2="187.20" y2="-0.00" stroke="red" stroke-width="2"/>
      <polygon points="187.20,-0.00 181.20,-3.00 181.20,3.00" fill="red"/>
      <line x1="163.20" y1="-0.00" x2="163.20" y2="-24.00" stroke="green" stroke-width="2"/>
      <polygon points="163.20,-24.00 160.20,-18.00 166.20,-18.00" fill="green"/>
    </g>
    <g id="leader_center">
      <circle cx="92.43" cy="-0.00" r="4" fill="black"/>
      <line x1="92.43" y1="-0.00" x2="116.43" y2="-0.00" stroke="red" stroke-width="2"/>
      <polygon points="116.43,-0.00 110.43,-3.00 110.43,3.00" fill="red"/>
      <line x1="92.43" y1="-0.00" x2="92.43" y2="-24.00" stroke="green" stroke-width="2"/>
      <polygon points="92.43,-24.00 89.43,-18.00 95.43,-18.00" fill="green"/>
    </g>
    <g id="flagnote-1-leader_dest">
      <circle cx="92.43" cy="-45.07" r="4" fill="black"/>
      <line x1="92.43" y1="-45.07" x2="116.43" y2="-45.07" stroke="red" stroke-width="2"/>
      <polygon points="116.43,-45.07 110.43,-48.07 110.43,-42.07" fill="red"/>
      <line x1="92.43" y1="-45.07" x2="92.43" y2="-69.07" stroke="green" stroke-width="2"/>
      <polygon points="92.43,-69.07 89.43,-63.07 95.43,-63.07" fill="green"/>
    </g>
    <g id="flagnote-1">
      <circle cx="92.43" cy="-278.89" r="4" fill="black"/>
      <line x1="92.43" y1="-278.89" x2="116.43" y2="-278.89" stroke="red" stroke-width="2"/>
      <polygon points="116.43,-278.89 110.43,-281.89 110.43,-275.89" fill="red"/>
      <line x1="92.43" y1="-278.89" x2="92.43" y2="-302.89" stroke="green" stroke-width="2"/>
      <polygon points="92.43,-302.89 89.43,-296.89 95.43,-296.89" fill="green"/>
    </g>
    <g id="flagnote-2-leader_dest">
      <circle cx="104.51" cy="-45.07" r="4" fill="black"/>
      <line x1="104.51" y1="-45.07" x2="128.51" y2="-45.07" stroke="red" stroke-width="2"/>
      <polygon points="128.51,-45.07 122.51,-48.07 122.51,-42.07" fill="red"/>
      <line x1="104.51" y1="-45.07" x2="104.51" y2="-69.07" stroke="green" stroke-width="2"/>
      <polygon points="104.51,-69.07 101.51,-63.07 107.51,-63.07" fill="green"/>
    </g>
    <g id="flagnote-2">
      <circle cx="164.61" cy="-269.39" r="4" fill="black"/>
      <line x1="164.61" y1="-269.39" x2="188.61" y2="-269.39" stroke="red" stroke-width="2"/>
      <polygon points="188.61,-269.39 182.61,-272.39 182.61,-266.39" fill="red"/>
      <line x1="164.61" y1="-269.39" x2="164.61" y2="-293.39" stroke="green" stroke-width="2"/>
      <polygon points="164.61,-293.39 161.61,-287.39 167.61,-287.39" fill="green"/>
    </g>
    <g id="flagnote-3-leader_dest">
      <circle cx="80.35" cy="-45.07" r="4" fill="black"/>
      <line x1="80.35" y1="-45.07" x2="104.35" y2="-45.07" stroke="red" stroke-width="2"/>
      <polygon points="104.35,-45.07 98.35,-48.07 98.35,-42.07" fill="red"/>
      <line x1="80.35" y1="-45.07" x2="80.35" y2="-69.07" stroke="green" stroke-width="2"/>
      <polygon points="80.35,-69.07 77.35,-63.07 83.35,-63.07" fill="green"/>
    </g>
    <g id="flagnote-3">
      <circle cx="20.25" cy="-269.39" r="4" fill="black"/>
      <line x1="20.25" y1="-269.39" x2="44.25" y2="-269.39" stroke="red" stroke-width="2"/>
      <polygon points="44.25,-269.39 38.25,-272.39 38.25,-266.39" fill="red"/>
      <line x1="20.25" y1="-269.39" x2="20.25" y2="-293.39" stroke="green" stroke-width="2"/>
      <polygon points="20.25,-293.39 17.25,-287.39 23.25,-287.39" fill="green"/>
    </g>
    <g id="flagnote-4-leader_dest">
      <circle cx="127.90" cy="-61.44" r="4" fill="black"/>
      <line x1="127.90" y1="-61.44" x2="151.90" y2="-61.44" stroke="red" stroke-width="2"/>
      <polygon points="151.90,-61.44 145.90,-64.44 145.90,-58.44" fill="red"/>
      <line x1="127.90" y1="-61.44" x2="127.90" y2="-85.44" stroke="green" stroke-width="2"/>
      <polygon points="127.90,-85.44 124.90,-79.44 130.90,-79.44" fill="green"/>
    </g>
    <g id="flagnote-4">
      <circle cx="231.88" cy="-241.53" r="4" fill="black"/>
      <line x1="231.88" y1="-241.53" x2="255.88" y2="-241.53" stroke="red" stroke-width="2"/>
      <polygon points="255.88,-241.53 249.88,-244.53 249.88,-238.53" fill="red"/>
      <line x1="231.88" y1="-241.53" x2="231.88" y2="-265.53" stroke="green" stroke-width="2"/>
      <polygon points="231.88,-265.53 228.88,-259.53 234.88,-259.53" fill="green"/>
    </g>
    <g id="flagnote-5-leader_dest">
      <circle cx="66.41" cy="-45.07" r="4" fill="black"/>
      <line x1="66.41" y1="-45.07" x2="90.41" y2="-45.07" stroke="red" stroke-width="2"/>
      <polygon points="90.41,-45.07 84.41,-48.07 84.41,-42.07" fill="red"/>
      <line x1="66.41" y1="-45.07" x2="66.41" y2="-69.07" stroke="green" stroke-width="2"/>
      <polygon points="66.41,-69.07 63.41,-63.07 69.41,-63.07" fill="green"/>
    </g>
    <g id="flagnote-5">
      <circle cx="-47.01" cy="-241.53" r="4" fill="black"/>
      <line x1="-47.01" y1="-241.53" x2="-23.01" y2="-241.53" stroke="red" stroke-width="2"/>
      <polygon points="-23.01,-241.53 -29.01,-244.53 -29.01,-238.53" fill="red"/>
      <line x1="-47.01" y1="-241.53" x2="-47.01" y2="-265.53" stroke="green" stroke-width="2"/>
      <polygon points="-47.01,-265.53 -50.01,-259.53 -44.01,-259.53" fill="green"/>
    </g>
    <g id="flagnote-6-leader_dest">
      <circle cx="153.87" cy="-61.44" r="4" fill="black"/>
      <line x1="153.87" y1="-61.44" x2="177.87" y2="-61.44" stroke="red" stroke-width="2"/>
      <polygon points="177.87,-61.44 171.87,-64.44 171.87,-58.44" fill="red"/>
      <line x1="153.87" y1="-61.44" x2="153.87" y2="-85.44" stroke="green" stroke-width="2"/>
      <polygon points="153.87,-85.44 150.87,-79.44 156.87,-79.44" fill="green"/>
    </g>
    <g id="flagnote-6">
      <circle cx="289.64" cy="-197.20" r="4" fill="black"/>
      <line x1="289.64" y1="-197.20" x2="313.64" y2="-197.20" stroke="red" stroke-width="2"/>
      <polygon points="313.64,-197.20 307.64,-200.20 307.64,-194.20" fill="red"/>
      <line x1="289.64" y1="-197.20" x2="289.64" y2="-221.20" stroke="green" stroke-width="2"/>
      <polygon points="289.64,-221.20 286.64,-215.20 292.64,-215.20" fill="green"/>
    </g>
    <g id="flagnote-7-leader_dest">
      <circle cx="48.28" cy="-44.15" r="4" fill="black"/>
      <line x1="48.28" y1="-44.15" x2="72.28" y2="-44.15" stroke="red" stroke-width="2"/>
      <polygon points="72.28,-44.15 66.28,-47.15 66.28,-41.15" fill="red"/>
      <line x1="48.28" y1="-44.15" x2="48.28" y2="-68.15" stroke="green" stroke-width="2"/>
      <polygon points="48.28,-68.15 45.28,-62.15 51.28,-62.15" fill="green"/>
    </g>
    <g id="flagnote-7">
      <circle cx="-104.77" cy="-197.20" r="4" fill="black"/>
      <line x1="-104.77" y1="-197.20" x2="-80.77" y2="-197.20" stroke="red" stroke-width="2"/>
      <polygon points="-80.77,-197.20 -86.77,-200.20 -86.77,-194.20" fill="red"/>
      <line x1="-104.77" y1="-197.20" x2="-104.77" y2="-221.20" stroke="green" stroke-width="2"/>
      <polygon points="-104.77,-221.20 -107.77,-215.20 -101.77,-215.20" fill="green"/>
    </g>
    <g id="flagnote-8-leader_dest">
      <circle cx="153.87" cy="61.44" r="4" fill="black"/>
      <line x1="153.87" y1="61.44" x2="177.87" y2="61.44" stroke="red" stroke-width="2"/>
      <polygon points="177.87,61.44 171.87,58.44 171.87,64.44" fill="red"/>
      <line x1="153.87" y1="61.44" x2="153.87" y2="37.44" stroke="green" stroke-width="2"/>
      <polygon points="153.87,37.44 150.87,43.44 156.87,43.44" fill="green"/>
    </g>
    <g id="flagnote-8">
      <circle cx="289.64" cy="197.20" r="4" fill="black"/>
      <line x1="289.64" y1="197.20" x2="313.64" y2="197.20" stroke="red" stroke-width="2"/>
      <polygon points="313.64,197.20 307.64,194.20 307.64,200.20" fill="red"/>
      <line x1="289.64" y1="197.20" x2="289.64" y2="173.20" stroke="green" stroke-width="2"/>
      <polygon points="289.64,173.20 286.64,179.20 292.64,179.20" fill="green"/>
    </g>
    <g id="flagnote-9-leader_dest">
      <circle cx="36.83" cy="-32.10" r="4" fill="black"/>
      <line x1="36.83" y1="-32.10" x2="60.83" y2="-32.10" stroke="red" stroke-width="2"/>
      <polygon points="60.83,-32.10 54.83,-35.10 54.83,-29.10" fill="red"/>
      <line x1="36.83" y1="-32.10" x2="36.83" y2="-56.10" stroke="green" stroke-width="2"/>
      <polygon points="36.83,-56.10 33.83,-50.10 39.83,-50.10" fill="green"/>
    </g>
    <g id="flagnote-9">
      <circle cx="-149.10" cy="-139.44" r="4" fill="black"/>
      <line x1="-149.10" y1="-139.44" x2="-125.10" y2="-139.44" stroke="red" stroke-width="2"/>
      <polygon points="-125.10,-139.44 -131.10,-142.44 -131.10,-136.44" fill="red"/>
      <line x1="-149.10" y1="-139.44" x2="-149.10" y2="-163.44" stroke="green" stroke-width="2"/>
      <polygon points="-149.10,-163.44 -152.10,-157.44 -146.10,-157.44" fill="green"/>
    </g>
    <g id="flagnote-10-leader_dest">
      <circle cx="127.90" cy="61.44" r="4" fill="black"/>
      <line x1="127.90" y1="61.44" x2="151.90" y2="61.44" stroke="red" stroke-width="2"/>
      <polygon points="151.90,61.44 145.90,58.44 145.90,64.44" fill="red"/>
      <line x1="127.90" y1="61.44" x2="127.90" y2="37.44" stroke="green" stroke-width="2"/>
      <polygon points="127.90,37.44 124.90,43.44 130.90,43.44" fill="green"/>
    </g>
    <g id="flagnote-10">
      <circle cx="231.88" cy="241.53" r="4" fill="black"/>
      <line x1="231.88" y1="241.53" x2="255.88" y2="241.53" stroke="red" stroke-width="2"/>
      <polygon points="255.88,241.53 249.88,238.53 249.88,244.53" fill="red"/>
      <line x1="231.88" y1="241.53" x2="231.88" y2="217.53" stroke="green" stroke-width="2"/>
      <polygon points="231.88,217.53 228.88,223.53 234.88,223.53" fill="green"/>
    </g>
    <g id="flagnote-11-leader_dest">
      <circle cx="36.83" cy="32.10" r="4" fill="black"/>
      <line x1="36.83" y1="32.10" x2="60.83" y2="32.10" stroke="red" stroke-width="2"/>
      <polygon points="60.83,32.10 54.83,29.10 54.83,35.10" fill="red"/>
      <line x1="36.83" y1="32.10" x2="36.83" y2="8.10" stroke="green" stroke-width="2"/>
      <polygon points="36.83,8.10 33.83,14.10 39.83,14.10" fill="green"/>
    </g>
    <g id="flagnote-11">
      <circle cx="-149.10" cy="139.44" r="4" fill="black"/>
      <line x1="-149.10" y1="139.44" x2="-125.10" y2="139.44" stroke="red" stroke-width="2"/>
      <polygon points="-125.10,139.44 -131.10,136.44 -131.10,142.44" fill="red"/>
      <line x1="-149.10" y1="139.44" x2="-149.10" y2="115.44" stroke="green" stroke-width="2"/>
      <polygon points="-149.10,115.44 -152.10,121.44 -146.10,121.44" fill="green"/>
    </g>
    <g id="flagnote-12-leader_dest">
      <circle cx="104.51" cy="45.07" r="4" fill="black"/>
      <line x1="104.51" y1="45.07" x2="128.51" y2="45.07" stroke="red" stroke-width="2"/>
      <polygon points="128.51,45.07 122.51,42.07 122.51,48.07" fill="red"/>
      <line x1="104.51" y1="45.07" x2="104.51" y2="21.07" stroke="green" stroke-width="2"/>
      <polygon points="104.51,21.07 101.51,27.07 107.51,27.07" fill="green"/>
    </g>
    <g id="flagnote-12">
      <circle cx="164.61" cy="269.39" r="4" fill="black"/>
      <line x1="164.61" y1="269.39" x2="188.61" y2="269.39" stroke="red" stroke-width="2"/>
      <polygon points="188.61,269.39 182.61,266.39 182.61,272.39" fill="red"/>
      <line x1="164.61" y1="269.39" x2="164.61" y2="245.39" stroke="green" stroke-width="2"/>
      <polygon points="164.61,245.39 161.61,251.39 167.61,251.39" fill="green"/>
    </g>
    <g id="flagnote-13-leader_dest">
      <circle cx="48.28" cy="44.15" r="4" fill="black"/>
      <line x1="48.28" y1="44.15" x2="72.28" y2="44.15" stroke="red" stroke-width="2"/>
      <polygon points="72.28,44.15 66.28,41.15 66.28,47.15" fill="red"/>
      <line x1="48.28" y1="44.15" x2="48.28" y2="20.15" stroke="green" stroke-width="2"/>
      <polygon points="48.28,20.15 45.28,26.15 51.28,26.15" fill="green"/>
    </g>
    <g id="flagnote-13">
      <circle cx="-104.77" cy="197.20" r="4" fill="black"/>
      <line x1="-104.77" y1="197.20" x2="-80.77" y2="197.20" stroke="red" stroke-width="2"/>
      <polygon points="-80.77,197.20 -86.77,194.20 -86.77,200.20" fill="red"/>
      <line x1="-104.77" y1="197.20" x2="-104.77" y2="173.20" stroke="green" stroke-width="2"/>
      <polygon points="-104.77,173.20 -107.77,179.20 -101.77,179.20" fill="green"/>
    </g>
    <g id="flagnote-14-leader_dest">
      <circle cx="66.41" cy="45.07" r="4" fill="black"/>
      <line x1="66.41" y1="45.07" x2="90.41" y2="45.07" stroke="red" stroke-width="2"/>
      <polygon points="90.41,45.07 84.41,42.07 84.41,48.07" fill="red"/>
      <line x1="66.41" y1="45.07" x2="66.41" y2="21.07" stroke="green" stroke-width="2"/>
      <polygon points="66.41,21.07 63.41,27.07 69.41,27.07" fill="green"/>
    </g>
    <g id="flagnote-14">
      <circle cx="-47.01" cy="241.53" r="4" fill="black"/>
      <line x1="-47.01" y1="241.53" x2="-23.01" y2="241.53" stroke="red" stroke-width="2"/>
      <polygon points="-23.01,241.53 -29.01,238.53 -29.01,244.53" fill="red"/>
      <line x1="-47.01" y1="241.53" x2="-47.01" y2="217.53" stroke="green" stroke-width="2"/>
      <polygon points="-47.01,217.53 -50.01,223.53 -44.01,223.53" fill="green"/>
    </g>
    <g id="flagnote-15-leader_dest">
      <circle cx="80.35" cy="45.07" r="4" fill="black"/>
      <line x1="80.35" y1="45.07" x2="104.35" y2="45.07" stroke="red" stroke-width="2"/>
      <polygon points="104.35,45.07 98.35,42.07 98.35,48.07" fill="red"/>
      <line x1="80.35" y1="45.07" x2="80.35" y2="21.07" stroke="green" stroke-width="2"/>
      <polygon points="80.35,21.07 77.35,27.07 83.35,27.07" fill="green"/>
    </g>
    <g id="flagnote-15">
      <circle cx="20.25" cy="269.39" r="4" fill="black"/>
      <line x1="20.25" y1="269.39" x2="44.25" y2="269.39" stroke="red" stroke-width="2"/>
      <polygon points="44.25,269.39 38.25,266.39 38.25,272.39" fill="red"/>
      <line x1="20.25" y1="269.39" x2="20.25" y2="245.39" stroke="green" stroke-width="2"/>
      <polygon points="20.25,245.39 17.25,251.39 23.25,251.39" fill="green"/>
    </g>
    <g id="flagnote-16-leader_dest">
      <circle cx="92.43" cy="45.07" r="4" fill="black"/>
      <line x1="92.43" y1="45.07" x2="116.43" y2="45.07" stroke="red" stroke-width="2"/>
      <polygon points="116.43,45.07 110.43,42.07 110.43,48.07" fill="red"/>
      <line x1="92.43" y1="45.07" x2="92.43" y2="21.07" stroke="green" stroke-width="2"/>
      <polygon points="92.43,21.07 89.43,27.07 95.43,27.07" fill="green"/>
    </g>
    <g id="flagnote-16">
      <circle cx="92.43" cy="278.89" r="4" fill="black"/>
      <line x1="92.43" y1="278.89" x2="116.43" y2="278.89" stroke="red" stroke-width="2"/>
      <polygon points="116.43,278.89 110.43,275.89 110.43,281.89" fill="red"/>
      <line x1="92.43" y1="278.89" x2="92.43" y2="254.89" stroke="green" stroke-width="2"/>
      <polygon points="92.43,254.89 89.43,260.89 95.43,260.89" fill="green"/>
    </g>
  </g>
</svg>
