<?xml version="1.0" encoding="UTF-8"?>
<svg xmlns="http://www.w3.org/2000/svg" version="1.1" width="400" height="400">
  <g id="M24308_3-4A-drawing-contents-start">
<polygon points="0.00,-104.74 42.44,-104.74 42.44,-131.00 47.17,-131.00 47.17,-104.74 88.06,-104.74 88.06,104.74 47.17,104.74 47.17,131.00 42.44,131.00 42.44,104.74 0.00,104.74" fill="#C0C0C0" stroke="black" stroke-width="1"/>
<rect x="0.00" y="-104.74" width="42.44" height="209.48" fill="#2C2C2C" stroke="black" stroke-width="1"/>
</g>
<g id="M24308_3-4A-drawing-contents-end">
  </g>
  <g id="output csys locations">
    <g id="flagnote-1-leader_dest">
      <circle cx="88.06" cy="-0.00" r="4" fill="black"/>
      <line x1="88.06" y1="-0.00" x2="112.06" y2="-0.00" stroke="red" stroke-width="2"/>
      <polygon points="112.06,-0.00 106.06,-3.00 106.06,3.00" fill="red"/>
      <line x1="88.06" y1="-0.00" x2="88.06" y2="-24.00" stroke="green" stroke-width="2"/>
      <polygon points="88.06,-24.00 85.06,-18.00 91.06,-18.00" fill="green"/>
    </g>
    <g id="flagnote-1">
      <circle cx="288.00" cy="-0.00" r="4" fill="black"/>
      <line x1="288.00" y1="-0.00" x2="312.00" y2="-0.00" stroke="red" stroke-width="2"/>
      <polygon points="312.00,-0.00 306.00,-3.00 306.00,3.00" fill="red"/>
      <line x1="288.00" y1="-0.00" x2="288.00" y2="-24.00" stroke="green" stroke-width="2"/>
      <polygon points="288.00,-24.00 285.00,-18.00 291.00,-18.00" fill="green"/>
    </g>
    <g id="flagnote-2-leader_dest">
      <circle cx="88.06" cy="-26.19" r="4" fill="black"/>
      <line x1="88.06" y1="-26.19" x2="112.06" y2="-26.19" stroke="red" stroke-width="2"/>
      <polygon points="112.06,-26.19 106.06,-29.19 106.06,-23.19" fill="red"/>
      <line x1="88.06" y1="-26.19" x2="88.06" y2="-50.19" stroke="green" stroke-width="2"/>
      <polygon points="88.06,-50.19 85.06,-44.19 91.06,-44.19" fill="green"/>
    </g>
    <g id="flagnote-2">
      <circle cx="278.19" cy="-74.54" r="4" fill="black"/>
      <line x1="278.19" y1="-74.54" x2="302.19" y2="-74.54" stroke="red" stroke-width="2"/>
      <polygon points="302.19,-74.54 296.19,-77.54 296.19,-71.54" fill="red"/>
      <line x1="278.19" y1="-74.54" x2="278.19" y2="-98.54" stroke="green" stroke-width="2"/>
      <polygon points="278.19,-98.54 275.19,-92.54 281.19,-92.54" fill="green"/>
    </g>
    <g id="flagnote-3-leader_dest">
      <circle cx="88.06" cy="26.19" r="4" fill="black"/>
      <line x1="88.06" y1="26.19" x2="112.06" y2="26.19" stroke="red" stroke-width="2"/>
      <polygon points="112.06,26.19 106.06,23.19 106.06,29.19" fill="red"/>
      <line x1="88.06" y1="26.19" x2="88.06" y2="2.19" stroke="green" stroke-width="2"/>
      <polygon points="88.06,2.19 85.06,8.19 91.06,8.19" fill="green"/>
    </g>
    <g id="flagnote-3">
      <circle cx="278.19" cy="74.54" r="4" fill="black"/>
      <line x1="278.19" y1="74.54" x2="302.19" y2="74.54" stroke="red" stroke-width="2"/>
      <polygon points="302.19,74.54 296.19,71.54 296.19,77.54" fill="red"/>
      <line x1="278.19" y1="74.54" x2="278.19" y2="50.54" stroke="green" stroke-width="2"/>
      <polygon points="278.19,50.54 275.19,56.54 281.19,56.54" fill="green"/>
    </g>
    <g id="flagnote-4-leader_dest">
      <circle cx="88.06" cy="-52.37" r="4" fill="black"/>
      <line x1="88.06" y1="-52.37" x2="112.06" y2="-52.37" stroke="red" stroke-width="2"/>
      <polygon points="112.06,-52.37 106.06,-55.37 106.06,-49.37" fill="red"/>
      <line x1="88.06" y1="-52.37" x2="88.06" y2="-76.37" stroke="green" stroke-width="2"/>
      <polygon points="88.06,-76.37 85.06,-70.37 91.06,-70.37" fill="green"/>
    </g>
    <g id="flagnote-4">
      <circle cx="249.42" cy="-144.00" r="4" fill="black"/>
      <line x1="249.42" y1="-144.00" x2="273.42" y2="-144.00" stroke="red" stroke-width="2"/>
      <polygon points="273.42,-144.00 267.42,-147.00 267.42,-141.00" fill="red"/>
      <line x1="249.42" y1="-144.00" x2="249.42" y2="-168.00" stroke="green" stroke-width="2"/>
      <polygon points="249.42,-168.00 246.42,-162.00 252.42,-162.00" fill="green"/>
    </g>
    <g id="flagnote-5-leader_dest">
      <circle cx="88.06" cy="52.37" r="4" fill="black"/>
      <line x1="88.06" y1="52.37" x2="112.06" y2="52.37" stroke="red" stroke-width="2"/>
      <polygon points="112.06,52.37 106.06,49.37 106.06,55.37" fill="red"/>
      <line x1="88.06" y1="52.37" x2="88.06" y2="28.37" stroke="green" stroke-width="2"/>
      <polygon points="88.06,28.37 85.06,34.37 91.06,34.37" fill="green"/>
    </g>
    <g id="flagnote-5">
      <circle cx="249.42" cy="144.00" r="4" fill="black"/>
      <line x1="249.42" y1="144.00" x2="273.42" y2="144.00" stroke="red" stroke-width="2"/>
      <polygon points="273.42,144.00 267.42,141.00 267.42,147.00" fill="red"/>
      <line x1="249.42" y1="144.00" x2="249.42" y2="120.00" stroke="green" stroke-width="2"/>
      <polygon points="249.42,120.00 246.42,126.00 252.42,126.00" fill="green"/>
    </g>
    <g id="flagnote-6-leader_dest">
      <circle cx="88.06" cy="-78.56" r="4" fill="black"/>
      <line x1="88.06" y1="-78.56" x2="112.06" y2="-78.56" stroke="red" stroke-width="2"/>
      <polygon points="112.06,-78.56 106.06,-81.56 106.06,-75.56" fill="red"/>
      <line x1="88.06" y1="-78.56" x2="88.06" y2="-102.56" stroke="green" stroke-width="2"/>
      <polygon points="88.06,-102.56 85.06,-96.56 91.06,-96.56" fill="green"/>
    </g>
    <g id="flagnote-6">
      <circle cx="203.65" cy="-203.65" r="4" fill="black"/>
      <line x1="203.65" y1="-203.65" x2="227.65" y2="-203.65" stroke="red" stroke-width="2"/>
      <polygon points="227.65,-203.65 221.65,-206.65 221.65,-200.65" fill="red"/>
      <line x1="203.65" y1="-203.65" x2="203.65" y2="-227.65" stroke="green" stroke-width="2"/>
      <polygon points="203.65,-227.65 200.65,-221.65 206.65,-221.65" fill="green"/>
    </g>
    <g id="flagnote-7-leader_dest">
      <circle cx="88.06" cy="78.56" r="4" fill="black"/>
      <line x1="88.06" y1="78.56" x2="112.06" y2="78.56" stroke="red" stroke-width="2"/>
      <polygon points="112.06,78.56 106.06,75.56 106.06,81.56" fill="red"/>
      <line x1="88.06" y1="78.56" x2="88.06" y2="54.56" stroke="green" stroke-width="2"/>
      <polygon points="88.06,54.56 85.06,60.56 91.06,60.56" fill="green"/>
    </g>
    <g id="flagnote-7">
      <circle cx="203.65" cy="203.65" r="4" fill="black"/>
      <line x1="203.65" y1="203.65" x2="227.65" y2="203.65" stroke="red" stroke-width="2"/>
      <polygon points="227.65,203.65 221.65,200.65 221.65,206.65" fill="red"/>
      <line x1="203.65" y1="203.65" x2="203.65" y2="179.65" stroke="green" stroke-width="2"/>
      <polygon points="203.65,179.65 200.65,185.65 206.65,185.65" fill="green"/>
    </g>
    <g id="flagnote-8-leader_dest">
      <circle cx="88.06" cy="-104.74" r="4" fill="black"/>
      <line x1="88.06" y1="-104.74" x2="112.06" y2="-104.74" stroke="red" stroke-width="2"/>
      <polygon points="112.06,-104.74 106.06,-107.74 106.06,-101.74" fill="red"/>
      <line x1="88.06" y1="-104.74" x2="88.06" y2="-128.74" stroke="green" stroke-width="2"/>
      <polygon points="88.06,-128.74 85.06,-122.74 91.06,-122.74" fill="green"/>
    </g>
    <g id="flagnote-8">
      <circle cx="144.00" cy="-249.42" r="4" fill="black"/>
      <line x1="144.00" y1="-249.42" x2="168.00" y2="-249.42" stroke="red" stroke-width="2"/>
      <polygon points="168.00,-249.42 162.00,-252.42 162.00,-246.42" fill="red"/>
      <line x1="144.00" y1="-249.42" x2="144.00" y2="-273.42" stroke="green" stroke-width="2"/>
      <polygon points="144.00,-273.42 141.00,-267.42 147.00,-267.42" fill="green"/>
    </g>
    <g id="flagnote-9-leader_dest">
      <circle cx="88.06" cy="104.74" r="4" fill="black"/>
      <line x1="88.06" y1="104.74" x2="112.06" y2="104.74" stroke="red" stroke-width="2"/>
      <polygon points="112.06,104.74 106.06,101.74 106.06,107.74" fill="red"/>
      <line x1="88.06" y1="104.74" x2="88.06" y2="80.74" stroke="green" stroke-width="2"/>
      <polygon points="88.06,80.74 85.06,86.74 91.06,86.74" fill="green"/>
    </g>
    <g id="flagnote-9">
      <circle cx="144.00" cy="249.42" r="4" fill="black"/>
      <line x1="144.00" y1="249.42" x2="168.00" y2="249.42" stroke="red" stroke-width="2"/>
      <polygon points="168.00,249.42 162.00,246.42 162.00,252.42" fill="red"/>
      <line x1="144.00" y1="249.42" x2="144.00" y2="225.42" stroke="green" stroke-width="2"/>
      <polygon points="144.00,225.42 141.00,231.42 147.00,231.42" fill="green"/>
    </g>
  </g>
</svg>
