<?xml version="1.0" encoding="UTF-8"?>
<svg xmlns="http://www.w3.org/2000/svg" version="1.1" width="400" height="400">
  <g id="M85049-90_N15G03-drawing-contents-start">
<!-- Finish colors approximated from https://d38999.federalconnectors.com/ -->
<!-- Knurl and section details from typical M85049/88 /89 /90 hardware -->
<defs>
<pattern id="M85049-90_N15G03-knurl-diamond" width="8" height="8" patternUnits="userSpaceOnUse">
  <path d="M0,8 L8,0 M-2,2 L2,-2 M6,10 L10,6" stroke="#5E646A" stroke-width="0.85" fill="none"/>
  <path d="M0,0 L8,8 M-2,6 L2,10 M6,-2 L10,2" stroke="#5E646A" stroke-width="0.85" fill="none"/>
</pattern>
<pattern id="M85049-90_N15G03-knurl-diamond-nut" width="8" height="8" patternUnits="userSpaceOnUse">
  <path d="M0,8 L8,0 M-2,2 L2,-2 M6,10 L10,6" stroke="#5E646A" stroke-width="0.85" fill="none"/>
  <path d="M0,0 L8,8 M-2,6 L2,10 M6,-2 L10,2" stroke="#5E646A" stroke-width="0.85" fill="none"/>
</pattern>
</defs>
<rect x="-33.60" y="-34.66" width="216.38" height="69.31" fill="#B4B9BE" stroke="none"/>
<rect x="59.90" y="-161.95" width="122.88" height="196.61" fill="#B4B9BE" stroke="none"/>
<rect x="59.90" y="-161.95" width="122.88" height="48.59" fill="#7A8086" stroke="none"/>
<rect x="59.90" y="-147.38" width="122.88" height="34.01" fill="url(#M85049-90_N15G03-knurl-diamond-nut)" stroke="none" opacity="0.55"/>
<rect x="-29.57" y="-34.66" width="29.57" height="69.31" fill="url(#M85049-90_N15G03-knurl-diamond)" stroke="none" opacity="0.55"/>
<line x1="59.90" y1="-34.66" x2="182.78" y2="34.66" stroke="#000000" stroke-width="1" opacity="0.05"/>
<polygon points="-33.60,-34.66 59.90,-34.66 59.90,-161.95 182.78,-161.95 182.78,34.66 -33.60,34.66" fill="none" stroke="#222222" stroke-width="1.5"/>
</g>
<g id="M85049-90_N15G03-drawing-contents-end">
  </g>
  <g id="output csys locations">
    <g id="connector">
      <circle cx="121.34" cy="-161.95" r="4" fill="black"/>
      <line x1="121.34" y1="-161.95" x2="121.34" y2="-185.95" stroke="red" stroke-width="2"/>
      <polygon points="121.34,-185.95 118.34,-179.95 124.34,-179.95" fill="red"/>
      <line x1="121.34" y1="-161.95" x2="97.34" y2="-161.95" stroke="green" stroke-width="2"/>
      <polygon points="97.34,-161.95 103.34,-158.95 103.34,-164.95" fill="green"/>
    </g>
    <g id="leader_center">
      <circle cx="98.46" cy="-50.19" r="4" fill="black"/>
      <line x1="98.46" y1="-50.19" x2="122.46" y2="-50.19" stroke="red" stroke-width="2"/>
      <polygon points="122.46,-50.19 116.46,-53.19 116.46,-47.19" fill="red"/>
      <line x1="98.46" y1="-50.19" x2="98.46" y2="-74.19" stroke="green" stroke-width="2"/>
      <polygon points="98.46,-74.19 95.46,-68.19 101.46,-68.19" fill="green"/>
    </g>
    <g id="flagnote-1-leader_dest">
      <circle cx="182.78" cy="34.14" r="4" fill="black"/>
      <line x1="182.78" y1="34.14" x2="206.78" y2="34.14" stroke="red" stroke-width="2"/>
      <polygon points="206.78,34.14 200.78,31.14 200.78,37.14" fill="red"/>
      <line x1="182.78" y1="34.14" x2="182.78" y2="10.14" stroke="green" stroke-width="2"/>
      <polygon points="182.78,10.14 179.78,16.14 185.78,16.14" fill="green"/>
    </g>
    <g id="flagnote-1">
      <circle cx="319.07" cy="170.42" r="4" fill="black"/>
      <line x1="319.07" y1="170.42" x2="343.07" y2="170.42" stroke="red" stroke-width="2"/>
      <polygon points="343.07,170.42 337.07,167.42 337.07,173.42" fill="red"/>
      <line x1="319.07" y1="170.42" x2="319.07" y2="146.42" stroke="green" stroke-width="2"/>
      <polygon points="319.07,146.42 316.07,152.42 322.07,152.42" fill="green"/>
    </g>
    <g id="flagnote-2-leader_dest">
      <circle cx="147.45" cy="34.66" r="4" fill="black"/>
      <line x1="147.45" y1="34.66" x2="171.45" y2="34.66" stroke="red" stroke-width="2"/>
      <polygon points="171.45,34.66 165.45,31.66 165.45,37.66" fill="red"/>
      <line x1="147.45" y1="34.66" x2="147.45" y2="10.66" stroke="green" stroke-width="2"/>
      <polygon points="147.45,10.66 144.45,16.66 150.45,16.66" fill="green"/>
    </g>
    <g id="flagnote-2">
      <circle cx="254.45" cy="220.00" r="4" fill="black"/>
      <line x1="254.45" y1="220.00" x2="278.45" y2="220.00" stroke="red" stroke-width="2"/>
      <polygon points="278.45,220.00 272.45,217.00 272.45,223.00" fill="red"/>
      <line x1="254.45" y1="220.00" x2="254.45" y2="196.00" stroke="green" stroke-width="2"/>
      <polygon points="254.45,196.00 251.45,202.00 257.45,202.00" fill="green"/>
    </g>
    <g id="flagnote-3-leader_dest">
      <circle cx="182.78" cy="-1.50" r="4" fill="black"/>
      <line x1="182.78" y1="-1.50" x2="206.78" y2="-1.50" stroke="red" stroke-width="2"/>
      <polygon points="206.78,-1.50 200.78,-4.50 200.78,1.50" fill="red"/>
      <line x1="182.78" y1="-1.50" x2="182.78" y2="-25.50" stroke="green" stroke-width="2"/>
      <polygon points="182.78,-25.50 179.78,-19.50 185.78,-19.50" fill="green"/>
    </g>
    <g id="flagnote-3">
      <circle cx="368.65" cy="105.81" r="4" fill="black"/>
      <line x1="368.65" y1="105.81" x2="392.65" y2="105.81" stroke="red" stroke-width="2"/>
      <polygon points="392.65,105.81 386.65,102.81 386.65,108.81" fill="red"/>
      <line x1="368.65" y1="105.81" x2="368.65" y2="81.81" stroke="green" stroke-width="2"/>
      <polygon points="368.65,81.81 365.65,87.81 371.65,87.81" fill="green"/>
    </g>
    <g id="flagnote-4-leader_dest">
      <circle cx="121.19" cy="34.66" r="4" fill="black"/>
      <line x1="121.19" y1="34.66" x2="145.19" y2="34.66" stroke="red" stroke-width="2"/>
      <polygon points="145.19,34.66 139.19,31.66 139.19,37.66" fill="red"/>
      <line x1="121.19" y1="34.66" x2="121.19" y2="10.66" stroke="green" stroke-width="2"/>
      <polygon points="121.19,10.66 118.19,16.66 124.19,16.66" fill="green"/>
    </g>
    <g id="flagnote-4">
      <circle cx="179.20" cy="251.16" r="4" fill="black"/>
      <line x1="179.20" y1="251.16" x2="203.20" y2="251.16" stroke="red" stroke-width="2"/>
      <polygon points="203.20,251.16 197.20,248.16 197.20,254.16" fill="red"/>
      <line x1="179.20" y1="251.16" x2="179.20" y2="227.16" stroke="green" stroke-width="2"/>
      <polygon points="179.20,227.16 176.20,233.16 182.20,233.16" fill="green"/>
    </g>
    <g id="flagnote-5-leader_dest">
      <circle cx="182.78" cy="-27.59" r="4" fill="black"/>
      <line x1="182.78" y1="-27.59" x2="206.78" y2="-27.59" stroke="red" stroke-width="2"/>
      <polygon points="206.78,-27.59 200.78,-30.59 200.78,-24.59" fill="red"/>
      <line x1="182.78" y1="-27.59" x2="182.78" y2="-51.59" stroke="green" stroke-width="2"/>
      <polygon points="182.78,-51.59 179.78,-45.59 185.78,-45.59" fill="green"/>
    </g>
    <g id="flagnote-5">
      <circle cx="399.81" cy="30.57" r="4" fill="black"/>
      <line x1="399.81" y1="30.57" x2="423.81" y2="30.57" stroke="red" stroke-width="2"/>
      <polygon points="423.81,30.57 417.81,27.57 417.81,33.57" fill="red"/>
      <line x1="399.81" y1="30.57" x2="399.81" y2="6.57" stroke="green" stroke-width="2"/>
      <polygon points="399.81,6.57 396.81,12.57 402.81,12.57" fill="green"/>
    </g>
    <g id="flagnote-6-leader_dest">
      <circle cx="98.46" cy="34.66" r="4" fill="black"/>
      <line x1="98.46" y1="34.66" x2="122.46" y2="34.66" stroke="red" stroke-width="2"/>
      <polygon points="122.46,34.66 116.46,31.66 116.46,37.66" fill="red"/>
      <line x1="98.46" y1="34.66" x2="98.46" y2="10.66" stroke="green" stroke-width="2"/>
      <polygon points="98.46,10.66 95.46,16.66 101.46,16.66" fill="green"/>
    </g>
    <g id="flagnote-6">
      <circle cx="98.46" cy="261.80" r="4" fill="black"/>
      <line x1="98.46" y1="261.80" x2="122.46" y2="261.80" stroke="red" stroke-width="2"/>
      <polygon points="122.46,261.80 116.46,258.80 116.46,264.80" fill="red"/>
      <line x1="98.46" y1="261.80" x2="98.46" y2="237.80" stroke="green" stroke-width="2"/>
      <polygon points="98.46,237.80 95.46,243.80 101.46,243.80" fill="green"/>
    </g>
    <g id="flagnote-7-leader_dest">
      <circle cx="182.78" cy="-50.19" r="4" fill="black"/>
      <line x1="182.78" y1="-50.19" x2="206.78" y2="-50.19" stroke="red" stroke-width="2"/>
      <polygon points="206.78,-50.19 200.78,-53.19 200.78,-47.19" fill="red"/>
      <line x1="182.78" y1="-50.19" x2="182.78" y2="-74.19" stroke="green" stroke-width="2"/>
      <polygon points="182.78,-74.19 179.78,-68.19 185.78,-68.19" fill="green"/>
    </g>
    <g id="flagnote-7">
      <circle cx="410.44" cy="-50.19" r="4" fill="black"/>
      <line x1="410.44" y1="-50.19" x2="434.44" y2="-50.19" stroke="red" stroke-width="2"/>
      <polygon points="434.44,-50.19 428.44,-53.19 428.44,-47.19" fill="red"/>
      <line x1="410.44" y1="-50.19" x2="410.44" y2="-74.19" stroke="green" stroke-width="2"/>
      <polygon points="410.44,-74.19 407.44,-68.19 413.44,-68.19" fill="green"/>
    </g>
    <g id="flagnote-8-leader_dest">
      <circle cx="75.72" cy="34.66" r="4" fill="black"/>
      <line x1="75.72" y1="34.66" x2="99.72" y2="34.66" stroke="red" stroke-width="2"/>
      <polygon points="99.72,34.66 93.72,31.66 93.72,37.66" fill="red"/>
      <line x1="75.72" y1="34.66" x2="75.72" y2="10.66" stroke="green" stroke-width="2"/>
      <polygon points="75.72,10.66 72.72,16.66 78.72,16.66" fill="green"/>
    </g>
    <g id="flagnote-8">
      <circle cx="17.71" cy="251.16" r="4" fill="black"/>
      <line x1="17.71" y1="251.16" x2="41.71" y2="251.16" stroke="red" stroke-width="2"/>
      <polygon points="41.71,251.16 35.71,248.16 35.71,254.16" fill="red"/>
      <line x1="17.71" y1="251.16" x2="17.71" y2="227.16" stroke="green" stroke-width="2"/>
      <polygon points="17.71,227.16 14.71,233.16 20.71,233.16" fill="green"/>
    </g>
    <g id="flagnote-9-leader_dest">
      <circle cx="182.78" cy="-72.78" r="4" fill="black"/>
      <line x1="182.78" y1="-72.78" x2="206.78" y2="-72.78" stroke="red" stroke-width="2"/>
      <polygon points="206.78,-72.78 200.78,-75.78 200.78,-69.78" fill="red"/>
      <line x1="182.78" y1="-72.78" x2="182.78" y2="-96.78" stroke="green" stroke-width="2"/>
      <polygon points="182.78,-96.78 179.78,-90.78 185.78,-90.78" fill="green"/>
    </g>
    <g id="flagnote-9">
      <circle cx="399.81" cy="-130.93" r="4" fill="black"/>
      <line x1="399.81" y1="-130.93" x2="423.81" y2="-130.93" stroke="red" stroke-width="2"/>
      <polygon points="423.81,-130.93 417.81,-133.93 417.81,-127.93" fill="red"/>
      <line x1="399.81" y1="-130.93" x2="399.81" y2="-154.93" stroke="green" stroke-width="2"/>
      <polygon points="399.81,-154.93 396.81,-148.93 402.81,-148.93" fill="green"/>
    </g>
    <g id="flagnote-10-leader_dest">
      <circle cx="49.48" cy="34.66" r="4" fill="black"/>
      <line x1="49.48" y1="34.66" x2="73.48" y2="34.66" stroke="red" stroke-width="2"/>
      <polygon points="73.48,34.66 67.48,31.66 67.48,37.66" fill="red"/>
      <line x1="49.48" y1="34.66" x2="49.48" y2="10.66" stroke="green" stroke-width="2"/>
      <polygon points="49.48,10.66 46.48,16.66 52.48,16.66" fill="green"/>
    </g>
    <g id="flagnote-10">
      <circle cx="-57.53" cy="220.00" r="4" fill="black"/>
      <line x1="-57.53" y1="220.00" x2="-33.53" y2="220.00" stroke="red" stroke-width="2"/>
      <polygon points="-33.53,220.00 -39.53,217.00 -39.53,223.00" fill="red"/>
      <line x1="-57.53" y1="220.00" x2="-57.53" y2="196.00" stroke="green" stroke-width="2"/>
      <polygon points="-57.53,196.00 -60.53,202.00 -54.53,202.00" fill="green"/>
    </g>
    <g id="flagnote-11-leader_dest">
      <circle cx="182.78" cy="-98.87" r="4" fill="black"/>
      <line x1="182.78" y1="-98.87" x2="206.78" y2="-98.87" stroke="red" stroke-width="2"/>
      <polygon points="206.78,-98.87 200.78,-101.87 200.78,-95.87" fill="red"/>
      <line x1="182.78" y1="-98.87" x2="182.78" y2="-122.87" stroke="green" stroke-width="2"/>
      <polygon points="182.78,-122.87 179.78,-116.87 185.78,-116.87" fill="green"/>
    </g>
    <g id="flagnote-11">
      <circle cx="368.65" cy="-206.18" r="4" fill="black"/>
      <line x1="368.65" y1="-206.18" x2="392.65" y2="-206.18" stroke="red" stroke-width="2"/>
      <polygon points="392.65,-206.18 386.65,-209.18 386.65,-203.18" fill="red"/>
      <line x1="368.65" y1="-206.18" x2="368.65" y2="-230.18" stroke="green" stroke-width="2"/>
      <polygon points="368.65,-230.18 365.65,-224.18 371.65,-224.18" fill="green"/>
    </g>
    <g id="flagnote-12-leader_dest">
      <circle cx="13.62" cy="34.66" r="4" fill="black"/>
      <line x1="13.62" y1="34.66" x2="37.62" y2="34.66" stroke="red" stroke-width="2"/>
      <polygon points="37.62,34.66 31.62,31.66 31.62,37.66" fill="red"/>
      <line x1="13.62" y1="34.66" x2="13.62" y2="10.66" stroke="green" stroke-width="2"/>
      <polygon points="13.62,10.66 10.62,16.66 16.62,16.66" fill="green"/>
    </g>
    <g id="flagnote-12">
      <circle cx="-122.15" cy="170.42" r="4" fill="black"/>
      <line x1="-122.15" y1="170.42" x2="-98.15" y2="170.42" stroke="red" stroke-width="2"/>
      <polygon points="-98.15,170.42 -104.15,167.42 -104.15,173.42" fill="red"/>
      <line x1="-122.15" y1="170.42" x2="-122.15" y2="146.42" stroke="green" stroke-width="2"/>
      <polygon points="-122.15,146.42 -125.15,152.42 -119.15,152.42" fill="green"/>
    </g>
    <g id="flagnote-13-leader_dest">
      <circle cx="182.78" cy="-134.51" r="4" fill="black"/>
      <line x1="182.78" y1="-134.51" x2="206.78" y2="-134.51" stroke="red" stroke-width="2"/>
      <polygon points="206.78,-134.51 200.78,-137.51 200.78,-131.51" fill="red"/>
      <line x1="182.78" y1="-134.51" x2="182.78" y2="-158.51" stroke="green" stroke-width="2"/>
      <polygon points="182.78,-158.51 179.78,-152.51 185.78,-152.51" fill="green"/>
    </g>
    <g id="flagnote-13">
      <circle cx="319.07" cy="-270.79" r="4" fill="black"/>
      <line x1="319.07" y1="-270.79" x2="343.07" y2="-270.79" stroke="red" stroke-width="2"/>
      <polygon points="343.07,-270.79 337.07,-273.79 337.07,-267.79" fill="red"/>
      <line x1="319.07" y1="-270.79" x2="319.07" y2="-294.79" stroke="green" stroke-width="2"/>
      <polygon points="319.07,-294.79 316.07,-288.79 322.07,-288.79" fill="green"/>
    </g>
  </g>
</svg>
