<?xml version="1.0" encoding="UTF-8"?>
<svg xmlns="http://www.w3.org/2000/svg" version="1.1" width="400" height="400">
  <g id="M83513_04-H14T-drawing-contents-start">
<polygon points="0.00,-62.21 138.44,-62.21 138.44,-86.40 142.22,-86.40 142.22,-62.21 286.22,-62.21 286.22,62.21 142.22,62.21 142.22,86.40 138.44,86.40 138.44,62.21 0.00,62.21" fill="#C0C0C0" stroke="black" stroke-width="1"/>
<rect x="0.00" y="-62.21" width="138.44" height="124.42" fill="#2C2C2C" stroke="black" stroke-width="1"/>
</g>
<g id="M83513_04-H14T-drawing-contents-end">
  </g>
  <g id="output csys locations">
    <g id="flagnote-1-leader_dest">
      <circle cx="286.22" cy="-0.00" r="4" fill="black"/>
      <line x1="286.22" y1="-0.00" x2="310.22" y2="-0.00" stroke="red" stroke-width="2"/>
      <polygon points="310.22,-0.00 304.22,-3.00 304.22,3.00" fill="red"/>
      <line x1="286.22" y1="-0.00" x2="286.22" y2="-24.00" stroke="green" stroke-width="2"/>
      <polygon points="286.22,-24.00 283.22,-18.00 289.22,-18.00" fill="green"/>
    </g>
    <g id="flagnote-1">
      <circle cx="288.00" cy="-0.00" r="4" fill="black"/>
      <line x1="288.00" y1="-0.00" x2="312.00" y2="-0.00" stroke="red" stroke-width="2"/>
      <polygon points="312.00,-0.00 306.00,-3.00 306.00,3.00" fill="red"/>
      <line x1="288.00" y1="-0.00" x2="288.00" y2="-24.00" stroke="green" stroke-width="2"/>
      <polygon points="288.00,-24.00 285.00,-18.00 291.00,-18.00" fill="green"/>
    </g>
  </g>
</svg>
