<?xml version="1.0" encoding="UTF-8"?>
<svg xmlns="http://www.w3.org/2000/svg" version="1.1" width="400" height="400">
  <g id="M83513_01-HC-drawing-contents-start">
<polygon points="0.00,-62.21 132.77,-62.21 132.77,-86.40 136.55,-86.40 136.55,-62.21 269.33,-62.21 269.33,62.21 136.55,62.21 136.55,86.40 132.77,86.40 132.77,62.21 0.00,62.21" fill="#C0C0C0" stroke="black" stroke-width="1"/>
<rect x="0.00" y="-62.21" width="132.77" height="124.42" fill="#2C2C2C" stroke="black" stroke-width="1"/>
</g>
<g id="M83513_01-HC-drawing-contents-end">
  </g>
  <g id="output csys locations">
    <g id="flagnote-1-leader_dest">
      <circle cx="269.33" cy="-0.00" r="4" fill="black"/>
      <line x1="269.33" y1="-0.00" x2="293.33" y2="-0.00" stroke="red" stroke-width="2"/>
      <polygon points="293.33,-0.00 287.33,-3.00 287.33,3.00" fill="red"/>
      <line x1="269.33" y1="-0.00" x2="269.33" y2="-24.00" stroke="green" stroke-width="2"/>
      <polygon points="269.33,-24.00 266.33,-18.00 272.33,-18.00" fill="green"/>
    </g>
    <g id="flagnote-1">
      <circle cx="288.00" cy="-0.00" r="4" fill="black"/>
      <line x1="288.00" y1="-0.00" x2="312.00" y2="-0.00" stroke="red" stroke-width="2"/>
      <polygon points="312.00,-0.00 306.00,-3.00 306.00,3.00" fill="red"/>
      <line x1="288.00" y1="-0.00" x2="288.00" y2="-24.00" stroke="green" stroke-width="2"/>
      <polygon points="288.00,-24.00 285.00,-18.00 291.00,-18.00" fill="green"/>
    </g>
    <g id="flagnote-2-leader_dest">
      <circle cx="269.33" cy="-62.21" r="4" fill="black"/>
      <line x1="269.33" y1="-62.21" x2="293.33" y2="-62.21" stroke="red" stroke-width="2"/>
      <polygon points="293.33,-62.21 287.33,-65.21 287.33,-59.21" fill="red"/>
      <line x1="269.33" y1="-62.21" x2="269.33" y2="-86.21" stroke="green" stroke-width="2"/>
      <polygon points="269.33,-86.21 266.33,-80.21 272.33,-80.21" fill="green"/>
    </g>
    <g id="flagnote-2">
      <circle cx="278.19" cy="-74.54" r="4" fill="black"/>
      <line x1="278.19" y1="-74.54" x2="302.19" y2="-74.54" stroke="red" stroke-width="2"/>
      <polygon points="302.19,-74.54 296.19,-77.54 296.19,-71.54" fill="red"/>
      <line x1="278.19" y1="-74.54" x2="278.19" y2="-98.54" stroke="green" stroke-width="2"/>
      <polygon points="278.19,-98.54 275.19,-92.54 281.19,-92.54" fill="green"/>
    </g>
    <g id="flagnote-3-leader_dest">
      <circle cx="269.33" cy="62.21" r="4" fill="black"/>
      <line x1="269.33" y1="62.21" x2="293.33" y2="62.21" stroke="red" stroke-width="2"/>
      <polygon points="293.33,62.21 287.33,59.21 287.33,65.21" fill="red"/>
      <line x1="269.33" y1="62.21" x2="269.33" y2="38.21" stroke="green" stroke-width="2"/>
      <polygon points="269.33,38.21 266.33,44.21 272.33,44.21" fill="green"/>
    </g>
    <g id="flagnote-3">
      <circle cx="278.19" cy="74.54" r="4" fill="black"/>
      <line x1="278.19" y1="74.54" x2="302.19" y2="74.54" stroke="red" stroke-width="2"/>
      <polygon points="302.19,74.54 296.19,71.54 296.19,77.54" fill="red"/>
      <line x1="278.19" y1="74.54" x2="278.19" y2="50.54" stroke="green" stroke-width="2"/>
      <polygon points="278.19,50.54 275.19,56.54 281.19,56.54" fill="green"/>
    </g>
  </g>
</svg>
