<?xml version="1.0" encoding="UTF-8"?>
<svg xmlns="http://www.w3.org/2000/svg" version="1.1" width="400" height="400">
  <g id="M85049-89_N25F02-drawing-contents-start">
<polygon points="0.00,43.68 129.60,67.20 246.70,11.20 275.21,-17.31 146.91,-145.61 118.40,-117.10 129.60,-67.20 0.00,-43.68" fill="#C0C0C0" stroke="black" stroke-width="2"/>
<polygon points="246.70,11.20 275.21,-17.31 146.91,-145.61 118.40,-117.10" fill="#A8A8A8" stroke="black" stroke-width="2"/>
<line x1="5.18" y1="43.68" x2="5.18" y2="-43.68" stroke="black" stroke-width="1"/>
<line x1="10.37" y1="43.68" x2="10.37" y2="-43.68" stroke="black" stroke-width="1"/>
<line x1="15.55" y1="43.68" x2="15.55" y2="-43.68" stroke="black" stroke-width="1"/>
<line x1="20.74" y1="43.68" x2="20.74" y2="-43.68" stroke="black" stroke-width="1"/>
</g>
<g id="M85049-89_N25F02-drawing-contents-end">
  </g>
  <g id="output csys locations">
    <g id="connector">
      <circle cx="211.06" cy="-81.46" r="4" fill="black"/>
      <line x1="211.06" y1="-81.46" x2="228.03" y2="-98.43" stroke="red" stroke-width="2"/>
      <polygon points="228.03,-98.43 221.67,-96.31 225.91,-92.07" fill="red"/>
      <line x1="211.06" y1="-81.46" x2="194.09" y2="-98.43" stroke="green" stroke-width="2"/>
      <polygon points="194.09,-98.43 196.21,-92.07 200.45,-96.31" fill="green"/>
    </g>
    <g id="flagnote-1-leader_dest">
      <circle cx="245.39" cy="-0.00" r="4" fill="black"/>
      <line x1="245.39" y1="-0.00" x2="269.39" y2="-0.00" stroke="red" stroke-width="2"/>
      <polygon points="269.39,-0.00 263.39,-3.00 263.39,3.00" fill="red"/>
      <line x1="245.39" y1="-0.00" x2="245.39" y2="-24.00" stroke="green" stroke-width="2"/>
      <polygon points="245.39,-24.00 242.39,-18.00 248.39,-18.00" fill="green"/>
    </g>
    <g id="flagnote-1">
      <circle cx="437.39" cy="-0.00" r="4" fill="black"/>
      <line x1="437.39" y1="-0.00" x2="461.39" y2="-0.00" stroke="red" stroke-width="2"/>
      <polygon points="461.39,-0.00 455.39,-3.00 455.39,3.00" fill="red"/>
      <line x1="437.39" y1="-0.00" x2="437.39" y2="-24.00" stroke="green" stroke-width="2"/>
      <polygon points="437.39,-24.00 434.39,-18.00 440.39,-18.00" fill="green"/>
    </g>
    <g id="flagnote-2-leader_dest">
      <circle cx="167.88" cy="44.98" r="4" fill="black"/>
      <line x1="167.88" y1="44.98" x2="191.88" y2="44.98" stroke="red" stroke-width="2"/>
      <polygon points="191.88,44.98 185.88,41.98 185.88,47.98" fill="red"/>
      <line x1="167.88" y1="44.98" x2="167.88" y2="20.98" stroke="green" stroke-width="2"/>
      <polygon points="167.88,20.98 164.88,26.98 170.88,26.98" fill="green"/>
    </g>
    <g id="flagnote-2">
      <circle cx="422.48" cy="113.20" r="4" fill="black"/>
      <line x1="422.48" y1="113.20" x2="446.48" y2="113.20" stroke="red" stroke-width="2"/>
      <polygon points="446.48,113.20 440.48,110.20 440.48,116.20" fill="red"/>
      <line x1="422.48" y1="113.20" x2="422.48" y2="89.20" stroke="green" stroke-width="2"/>
      <polygon points="422.48,89.20 419.48,95.20 425.48,95.20" fill="green"/>
    </g>
    <g id="flagnote-3-leader_dest">
      <circle cx="131.53" cy="-75.94" r="4" fill="black"/>
      <line x1="131.53" y1="-75.94" x2="155.53" y2="-75.94" stroke="red" stroke-width="2"/>
      <polygon points="155.53,-75.94 149.53,-78.94 149.53,-72.94" fill="red"/>
      <line x1="131.53" y1="-75.94" x2="131.53" y2="-99.94" stroke="green" stroke-width="2"/>
      <polygon points="131.53,-99.94 128.53,-93.94 134.53,-93.94" fill="green"/>
    </g>
    <g id="flagnote-3">
      <circle cx="378.79" cy="-218.69" r="4" fill="black"/>
      <line x1="378.79" y1="-218.69" x2="402.79" y2="-218.69" stroke="red" stroke-width="2"/>
      <polygon points="402.79,-218.69 396.79,-221.69 396.79,-215.69" fill="red"/>
      <line x1="378.79" y1="-218.69" x2="378.79" y2="-242.69" stroke="green" stroke-width="2"/>
      <polygon points="378.79,-242.69 375.79,-236.69 381.79,-236.69" fill="green"/>
    </g>
    <g id="flagnote-4-leader_dest">
      <circle cx="110.34" cy="63.71" r="4" fill="black"/>
      <line x1="110.34" y1="63.71" x2="134.34" y2="63.71" stroke="red" stroke-width="2"/>
      <polygon points="134.34,63.71 128.34,60.71 128.34,66.71" fill="red"/>
      <line x1="110.34" y1="63.71" x2="110.34" y2="39.71" stroke="green" stroke-width="2"/>
      <polygon points="110.34,39.71 107.34,45.71 113.34,45.71" fill="green"/>
    </g>
    <g id="flagnote-4">
      <circle cx="378.79" cy="218.69" r="4" fill="black"/>
      <line x1="378.79" y1="218.69" x2="402.79" y2="218.69" stroke="red" stroke-width="2"/>
      <polygon points="402.79,218.69 396.79,215.69 396.79,221.69" fill="red"/>
      <line x1="378.79" y1="218.69" x2="378.79" y2="194.69" stroke="green" stroke-width="2"/>
      <polygon points="378.79,194.69 375.79,200.69 381.79,200.69" fill="green"/>
    </g>
    <g id="flagnote-5-leader_dest">
      <circle cx="53.36" cy="-53.36" r="4" fill="black"/>
      <line x1="53.36" y1="-53.36" x2="77.36" y2="-53.36" stroke="red" stroke-width="2"/>
      <polygon points="77.36,-53.36 71.36,-56.36 71.36,-50.36" fill="red"/>
      <line x1="53.36" y1="-53.36" x2="53.36" y2="-77.36" stroke="green" stroke-width="2"/>
      <polygon points="53.36,-77.36 50.36,-71.36 56.36,-71.36" fill="green"/>
    </g>
    <g id="flagnote-5">
      <circle cx="309.28" cy="-309.28" r="4" fill="black"/>
      <line x1="309.28" y1="-309.28" x2="333.28" y2="-309.28" stroke="red" stroke-width="2"/>
      <polygon points="333.28,-309.28 327.28,-312.28 327.28,-306.28" fill="red"/>
      <line x1="309.28" y1="-309.28" x2="309.28" y2="-333.28" stroke="green" stroke-width="2"/>
      <polygon points="309.28,-333.28 306.28,-327.28 312.28,-327.28" fill="green"/>
    </g>
    <g id="flagnote-6-leader_dest">
      <circle cx="53.36" cy="53.36" r="4" fill="black"/>
      <line x1="53.36" y1="53.36" x2="77.36" y2="53.36" stroke="red" stroke-width="2"/>
      <polygon points="77.36,53.36 71.36,50.36 71.36,56.36" fill="red"/>
      <line x1="53.36" y1="53.36" x2="53.36" y2="29.36" stroke="green" stroke-width="2"/>
      <polygon points="53.36,29.36 50.36,35.36 56.36,35.36" fill="green"/>
    </g>
    <g id="flagnote-6">
      <circle cx="309.28" cy="309.28" r="4" fill="black"/>
      <line x1="309.28" y1="309.28" x2="333.28" y2="309.28" stroke="red" stroke-width="2"/>
      <polygon points="333.28,309.28 327.28,306.28 327.28,312.28" fill="red"/>
      <line x1="309.28" y1="309.28" x2="309.28" y2="285.28" stroke="green" stroke-width="2"/>
      <polygon points="309.28,285.28 306.28,291.28 312.28,291.28" fill="green"/>
    </g>
    <g id="flagnote-7-leader_dest">
      <circle cx="28.17" cy="-48.79" r="4" fill="black"/>
      <line x1="28.17" y1="-48.79" x2="52.17" y2="-48.79" stroke="red" stroke-width="2"/>
      <polygon points="52.17,-48.79 46.17,-51.79 46.17,-45.79" fill="red"/>
      <line x1="28.17" y1="-48.79" x2="28.17" y2="-72.79" stroke="green" stroke-width="2"/>
      <polygon points="28.17,-72.79 25.17,-66.79 31.17,-66.79" fill="green"/>
    </g>
    <g id="flagnote-7">
      <circle cx="218.69" cy="-378.79" r="4" fill="black"/>
      <line x1="218.69" y1="-378.79" x2="242.69" y2="-378.79" stroke="red" stroke-width="2"/>
      <polygon points="242.69,-378.79 236.69,-381.79 236.69,-375.79" fill="red"/>
      <line x1="218.69" y1="-378.79" x2="218.69" y2="-402.79" stroke="green" stroke-width="2"/>
      <polygon points="218.69,-402.79 215.69,-396.79 221.69,-396.79" fill="green"/>
    </g>
    <g id="flagnote-8-leader_dest">
      <circle cx="28.17" cy="48.79" r="4" fill="black"/>
      <line x1="28.17" y1="48.79" x2="52.17" y2="48.79" stroke="red" stroke-width="2"/>
      <polygon points="52.17,48.79 46.17,45.79 46.17,51.79" fill="red"/>
      <line x1="28.17" y1="48.79" x2="28.17" y2="24.79" stroke="green" stroke-width="2"/>
      <polygon points="28.17,24.79 25.17,30.79 31.17,30.79" fill="green"/>
    </g>
    <g id="flagnote-8">
      <circle cx="218.69" cy="378.79" r="4" fill="black"/>
      <line x1="218.69" y1="378.79" x2="242.69" y2="378.79" stroke="red" stroke-width="2"/>
      <polygon points="242.69,378.79 236.69,375.79 236.69,381.79" fill="red"/>
      <line x1="218.69" y1="378.79" x2="218.69" y2="354.79" stroke="green" stroke-width="2"/>
      <polygon points="218.69,354.79 215.69,360.79 221.69,360.79" fill="green"/>
    </g>
    <g id="flagnote-9-leader_dest">
      <circle cx="12.30" cy="45.91" r="4" fill="black"/>
      <line x1="12.30" y1="45.91" x2="36.30" y2="45.91" stroke="red" stroke-width="2"/>
      <polygon points="36.30,45.91 30.30,42.91 30.30,48.91" fill="red"/>
      <line x1="12.30" y1="45.91" x2="12.30" y2="21.91" stroke="green" stroke-width="2"/>
      <polygon points="12.30,21.91 9.30,27.91 15.30,27.91" fill="green"/>
    </g>
    <g id="flagnote-9">
      <circle cx="113.20" cy="422.48" r="4" fill="black"/>
      <line x1="113.20" y1="422.48" x2="137.20" y2="422.48" stroke="red" stroke-width="2"/>
      <polygon points="137.20,422.48 131.20,419.48 131.20,425.48" fill="red"/>
      <line x1="113.20" y1="422.48" x2="113.20" y2="398.48" stroke="green" stroke-width="2"/>
      <polygon points="113.20,398.48 110.20,404.48 116.20,404.48" fill="green"/>
    </g>
    <g id="flagnote-10-leader_dest">
      <circle cx="12.30" cy="-45.91" r="4" fill="black"/>
      <line x1="12.30" y1="-45.91" x2="36.30" y2="-45.91" stroke="red" stroke-width="2"/>
      <polygon points="36.30,-45.91 30.30,-48.91 30.30,-42.91" fill="red"/>
      <line x1="12.30" y1="-45.91" x2="12.30" y2="-69.91" stroke="green" stroke-width="2"/>
      <polygon points="12.30,-69.91 9.30,-63.91 15.30,-63.91" fill="green"/>
    </g>
    <g id="flagnote-10">
      <circle cx="113.20" cy="-422.48" r="4" fill="black"/>
      <line x1="113.20" y1="-422.48" x2="137.20" y2="-422.48" stroke="red" stroke-width="2"/>
      <polygon points="137.20,-422.48 131.20,-425.48 131.20,-419.48" fill="red"/>
      <line x1="113.20" y1="-422.48" x2="113.20" y2="-446.48" stroke="green" stroke-width="2"/>
      <polygon points="113.20,-446.48 110.20,-440.48 116.20,-440.48" fill="green"/>
    </g>
    <g id="flagnote-11-leader_dest">
      <circle cx="0.00" cy="43.68" r="4" fill="black"/>
      <line x1="0.00" y1="43.68" x2="24.00" y2="43.68" stroke="red" stroke-width="2"/>
      <polygon points="24.00,43.68 18.00,40.68 18.00,46.68" fill="red"/>
      <line x1="0.00" y1="43.68" x2="0.00" y2="19.68" stroke="green" stroke-width="2"/>
      <polygon points="0.00,19.68 -3.00,25.68 3.00,25.68" fill="green"/>
    </g>
    <g id="flagnote-11">
      <circle cx="0.00" cy="437.39" r="4" fill="black"/>
      <line x1="0.00" y1="437.39" x2="24.00" y2="437.39" stroke="red" stroke-width="2"/>
      <polygon points="24.00,437.39 18.00,434.39 18.00,440.39" fill="red"/>
      <line x1="0.00" y1="437.39" x2="0.00" y2="413.39" stroke="green" stroke-width="2"/>
      <polygon points="0.00,413.39 -3.00,419.39 3.00,419.39" fill="green"/>
    </g>
    <g id="flagnote-12-leader_dest">
      <circle cx="0.00" cy="-43.68" r="4" fill="black"/>
      <line x1="0.00" y1="-43.68" x2="24.00" y2="-43.68" stroke="red" stroke-width="2"/>
      <polygon points="24.00,-43.68 18.00,-46.68 18.00,-40.68" fill="red"/>
      <line x1="0.00" y1="-43.68" x2="0.00" y2="-67.68" stroke="green" stroke-width="2"/>
      <polygon points="0.00,-67.68 -3.00,-61.68 3.00,-61.68" fill="green"/>
    </g>
    <g id="flagnote-12">
      <circle cx="0.00" cy="-437.39" r="4" fill="black"/>
      <line x1="0.00" y1="-437.39" x2="24.00" y2="-437.39" stroke="red" stroke-width="2"/>
      <polygon points="24.00,-437.39 18.00,-440.39 18.00,-434.39" fill="red"/>
      <line x1="0.00" y1="-437.39" x2="0.00" y2="-461.39" stroke="green" stroke-width="2"/>
      <polygon points="0.00,-461.39 -3.00,-455.39 3.00,-455.39" fill="green"/>
    </g>
  </g>
</svg>
